<svg xmlns="http://www.w3.org/2000/svg" width="360" height="149" viewBox="0 0 360 149">
    <defs>
        <linearGradient id="prefix__a" x1="51.205%" x2="52.185%" y1="45.223%" y2="53.995%">
            <stop offset="0%" stop-color="#FFC679"/>
            <stop offset="100%" stop-color="#FFF5F1"/>
        </linearGradient>
    </defs>
    <path fill="url(#prefix__a)" fill-rule="evenodd" d="M483.373 0C492.556 0 500 6.91 500 15.434c0 5.317-2.897 10.007-7.305 12.782.887 2.514 1.367 5.202 1.367 7.995 0 6.486-2.59 12.407-6.854 16.91v103.315l-171.76.49c-4.25 1.584-8.862 2.605-13.714 2.944-7.205.504-14.098-.556-20.227-2.847l-3.003.007c.335-.262.682-.526 1.04-.793-1.963-.843-3.84-1.814-5.612-2.904-4.733 11.148-16.729 19.546-31.298 20.564-14.854 1.039-28.127-5.89-34.217-16.62l-22.713-.065c-.828.064-1.665.097-2.51.097-.905 0-1.802-.038-2.689-.112l-168.629-.482V30.508C5.083 28.986 0 22.815 0 15.434 0 6.91 6.78 0 15.143 0c7.978 0 14.515 6.289 15.1 14.268 2.25-.784 4.662-1.208 7.168-1.208 12.462 0 22.565 10.498 22.565 23.448 0 2.035-.25 4.009-.718 5.892 1.203-.167 2.435-.253 3.687-.253 13.46 0 24.487 9.925 25.464 22.516 5.006-3.719 11.063-5.895 17.589-5.895 17.218 0 31.175 15.15 31.175 33.837 0 4.18-.698 8.182-1.975 11.878l.132-.003.359-.003c8.02 0 15.022 4.175 18.77 10.382 4.729-10.984 15.814-18.693 28.736-18.693 16.028 0 29.231 11.862 30.98 27.122 6.028-5.801 14.546-9.71 24.192-10.384 7.054-.494 13.75.81 19.491 3.464 4.122-15.334 19.593-27.398 38.823-28.743 16.343-1.143 31.078 5.761 38.949 16.83 4.708-7.033 14.321-11.85 25.415-11.85 1.11 0 2.206.048 3.283.142-.102-.722-.178-1.454-.23-2.193-1.178-16.843 10.995-31.414 27.19-32.546 7.376-.516 14.314 1.845 19.795 6.162 2.758-10.603 12.808-18.461 24.784-18.461 1.995 0 3.936.218 5.799.63-1.439-3.104-2.236-6.53-2.236-10.128 0-14.098 12.23-25.526 27.316-25.526.267 0 .533.004.799.01C469.698 4.49 475.97 0 483.373 0z" transform="translate(-82 -25)"/>
</svg>
