<svg xmlns="http://www.w3.org/2000/svg" width="1440" height="447" viewBox="0 0 1440 447">
    <path fill="#FFD8A3" d="M1428.55 362.176c32.239 13.685 48.07 49.052 35.36 78.994-7.927 18.678-25.089 30.833-44.705 34.014-.635 10.154-2.958 20.31-7.122 30.12-9.92 23.37-28.516 40.593-50.957 49.903l-153.469 361.547-602.135-253.566c-17.447-.728-35.338-4.019-53.048-10.117-26.222-9.029-48.968-23.153-67.131-40.495l-11.294-4.756c1.69-.454 3.434-.897 5.23-1.329-5.36-5.662-10.26-11.62-14.661-17.816-33.24 32.108-87.879 43.73-140.55 25.594-67.456-23.227-107.403-86.898-93.167-145.463-17.378 6.836-36.45 9.596-55.635 7.659 34.709 43.092 58.208 78.188 70.498 105.29l-731.68-313.477 213.082-501.99c-21.167-15.572-29.568-44.54-18.658-70.242 12.71-29.942 46.815-44.113 76.176-31.65 28.01 11.89 41.583 43.722 31.738 72.623 9.074.602 18.17 2.703 26.97 6.438 43.752 18.572 63.568 70.504 44.26 115.994-3.035 7.148-6.855 13.712-11.308 19.626 4.474 1.209 8.925 2.742 13.322 4.608C-63.08-96.256-39.165-44.955-54.509.731c23.12-5.608 47.63-4.225 70.54 5.5 60.449 25.658 86.864 99.673 59 165.317-6.233 14.683-14.653 27.703-24.647 38.783l.47.185 1.262.524c28.157 11.952 46.516 37.055 50.422 64.444 32.975-31.539 83.389-42.098 128.754-22.842 56.272 23.886 84.94 85.226 68.325 141.434 29.814-11.39 65.547-12.427 100.418-.42 25.498 8.78 47.066 23.338 63.262 41.216 37.332-47.724 109.641-67.046 179.157-43.11 59.083 20.344 100.517 66.551 111.647 117.161 27.02-17.687 67.953-20.283 106.9-3.75 3.898 1.654 7.672 3.456 11.313 5.39.72-2.686 1.542-5.37 2.463-8.044 20.977-60.92 85.443-93.966 143.986-73.808 26.665 9.181 47.503 27.817 60.307 51.146 25.489-33.133 72.494-45.762 114.54-27.914 7.003 2.972 13.493 6.63 19.42 10.855-.423-13.049 1.886-26.267 7.252-38.91 21.02-49.52 80.996-71.439 133.961-48.956.938.398 1.867.807 2.788 1.228 16.814-18.59 45.53-25.015 71.519-13.984z"/>
</svg>
