<svg xmlns="http://www.w3.org/2000/svg" width="1440" height="537" viewBox="0 0 1440 537">
    <path fill="#FFF5F1" fill-rule="evenodd" d="M1683.152-54C1718.414-54 1747-28.067 1747 3.922c0 19.955-11.123 37.553-28.052 47.97 3.407 9.436 5.25 19.523 5.25 30.002 0 24.281-9.893 46.452-26.196 63.336L1698 532.77l-558 1.553V535H985.24l-1.273.082c-8.408.503-16.701.464-24.831-.081H672.681c.445.334.885.667 1.319.999l-130.025-.361c-4.434.477-8.94.722-13.507.722-4.806 0-9.546-.271-14.204-.8L-127 533.772V60.578c-26.282-5.564-46-28.817-46-56.657C-173-28.068-146.967-54-114.853-54c30.636 0 55.739 23.6 57.984 53.546 8.646-2.942 17.903-4.535 27.527-4.535 47.856 0 86.65 39.398 86.65 87.997 0 7.637-.957 15.047-2.758 22.112 4.622-.625 9.35-.948 14.16-.948 51.685 0 94.03 37.251 97.782 84.504 19.221-13.96 42.481-22.126 67.539-22.126 66.117 0 119.715 56.852 119.715 126.983 0 15.687-2.682 30.71-7.585 44.58l.508-.014 1.376-.01c30.797 0 57.687 15.67 72.082 38.963 18.153-41.221 60.721-70.152 110.34-70.152 38.73 0 73.163 17.625 95.045 44.961 23.221-26.997 59.84-45.681 102.098-48.568 41.225-2.817 79.278 9.986 106.038 32.505 26.201-39.611 75.015-68.017 132.606-71.952 65.602-4.481 124.45 24.03 153.505 68.898 19.184-23.505 53.95-39.21 93.654-39.21 4.263 0 8.47.18 12.606.533-.39-2.71-.684-5.455-.882-8.229-4.524-63.21 42.22-117.895 104.407-122.143 28.325-1.935 54.969 6.927 76.013 23.126 10.588-39.788 49.183-69.282 95.172-69.282 7.66 0 15.114.818 22.268 2.365-5.526-11.65-8.586-24.504-8.586-38.01 0-52.905 46.962-95.794 104.893-95.794 1.026 0 2.048.013 3.067.04 8.27-23.29 32.356-40.14 60.781-40.14z"/>
</svg>
