<svg xmlns="http://www.w3.org/2000/svg" width="1440" height="566" viewBox="0 0 1440 566">
    <path fill="#FE5814" d="M1462.125 341.734c30.336 8.129 48.801 37.58 41.245 65.783-4.714 17.592-18.44 30.543-35.464 35.824.7 9.105-.097 18.422-2.572 27.66-5.9 22.015-20.27 39.651-39.044 50.733l-91.303 340.747-566.908-150.167c-15.388 1.453-31.463.743-47.72-2.416-24.181-4.698-45.956-14.266-64.142-27.217l-11.429-3.028c1.546-.66 3.148-1.314 4.805-1.965-5.482-4.37-10.588-9.062-15.28-14.03-25.519 32.697-72.593 49.863-121.627 40.335-62.799-12.201-106.208-63.792-100.86-117.624-14.687 8.31-31.415 13.16-48.828 13.783 36.324 34.03 61.65 62.337 75.979 84.918l-689.052-187.107 126.76-473.08c-20.563-11.26-31.507-35.845-25.048-59.947 7.556-28.202 36.078-45.064 63.705-37.661 26.355 7.062 42.375 33.654 37.233 60.572 8.134-.6 16.474.13 24.752 2.348 41.17 11.031 65.237 54.707 53.757 97.553-1.804 6.733-4.379 13.044-7.597 18.858 4.124.514 8.268 1.32 12.406 2.429 44.463 11.913 72.091 54.515 64.157 97.038 19.834-7.876 41.772-9.713 63.33-3.937 56.878 15.24 89.557 77.717 72.99 139.545-3.705 13.83-9.56 26.455-17.055 37.553l.44.106 1.186.308c26.493 7.099 45.924 27.111 52.805 50.964 25.356-32.155 68.81-47.848 111.497-36.41 52.948 14.187 86.049 65.117 78.296 117.15 25.058-13.853 56.662-19.245 89.125-12.938 23.738 4.612 44.706 14.853 61.316 28.715 27.208-47.086 89.015-73.307 153.731-60.733 55.004 10.687 97.557 46.57 113.746 90.158 21.792-19.1 57.82-26.53 94.466-16.71 3.668.982 7.244 2.112 10.72 3.376.303-2.479.699-4.966 1.183-7.458 11.04-56.77 64.172-94.205 118.673-83.616 24.825 4.823 45.652 18.778 59.93 37.91 18.507-32.637 58.676-49.743 98.24-39.142 6.59 1.766 12.809 4.206 18.597 7.219-2-11.546-1.597-23.582 1.593-35.49 12.498-46.642 63.03-73.627 112.867-60.274.882.237 1.758.484 2.629.743 12.615-18.626 37.317-27.93 61.77-21.378zM251.93 502.448l-.444.379.521.504-.077-.883z"/>
</svg>
