<svg xmlns="http://www.w3.org/2000/svg" width="1385" height="363" viewBox="0 0 1385 363">
    <path fill="#FFC679" d="M136.817 0c53.762 0 100.28 31.783 122.648 78.018 18.296-9.018 39.48-14.17 62.055-14.17 53.21 0 98.68 28.617 116.9 69.003 25.984-47.93 76.221-80.404 133.932-80.404 66.554 0 123.17 43.192 144.117 103.465 17.542-6.367 37.567-9.974 58.828-9.974 44.21 0 83.077 15.597 105.41 39.16C892.648 123.59 941.48 77.53 999.906 77.53c52.042 0 96.473 36.545 114.001 88.001 18.788-21.902 51.46-37.595 89.783-41.467 10.43-34.16 40.166-68.755 82.697-91.37 68.385-36.36 143.953-27.978 168.785 18.725 24.832 46.702-10.475 114.038-78.86 150.399-9.563 5.084-19.266 9.294-28.95 12.646-4.385 44.513-58.731 79.693-125.128 79.693-44.416 0-83.439-15.742-105.722-39.49-15.34 55.883-61.744 96.497-116.606 96.497-50.062 0-93.08-33.817-111.884-82.194-20.38 28.418-63.2 47.99-112.724 47.99-29.87 0-57.302-7.12-78.843-19.007-27.729 39.132-72.984 64.612-124.102 64.612-74.556 0-136.638-54.2-150.082-125.896-22.847 26.581-59.47 43.806-100.75 43.806-37.035 0-70.321-13.864-93.28-35.91-24.225 22.326-56.276 35.91-91.423 35.91C61.255 280.475 0 217.69 0 140.238 0 62.786 61.255 0 136.817 0z"/>
</svg>
