<svg xmlns="http://www.w3.org/2000/svg" xmlns:xlink="http://www.w3.org/1999/xlink" width="480" height="1317" viewBox="0 0 480 1317">
    <defs>
        <path id="prefix__a" d="M175.879 240.238V98.165c0-53.71-39.252-97.399-87.5-97.399-48.256 0-87.5 43.689-87.5 97.399v142.073h175"/>
    </defs>
    <g fill="none" fill-rule="evenodd">
        <g>
            <path fill="#000" d="M269.892 539.026L311.108 539.026 311.108 284.727 269.892 284.727z" transform="translate(0 2) translate(0 775)"/>
            <path fill="#FCC8B2" d="M149.177 49.182h227.689c56.918 0 103.056 45.537 103.056 101.714V295.23h-433.8V150.896c0-56.177 46.138-101.714 103.055-101.714" transform="translate(0 2) translate(0 775)"/>
            <path fill="#FFF" d="M46.121 298.468V152.234c0-56.914 46.139-103.052 103.056-103.052 56.914 0 103.048 46.138 103.048 103.052v146.234H46.121" transform="translate(0 2) translate(0 775)"/>
            <path fill="#343434" d="M46.121 295.662c1.347 0 2.433-1.086 2.433-2.428V150.069c0-54.29 45.139-98.459 100.623-98.459 55.485 0 100.624 44.17 100.624 98.46v143.164c0 1.342 1.086 2.428 2.424 2.428 1.346 0 2.433-1.086 2.433-2.428V150.069c0-56.97-47.32-103.316-105.48-103.316-58.165 0-105.485 46.347-105.485 103.316v143.165c0 1.342 1.09 2.428 2.428 2.428" transform="translate(0 2) translate(0 775)"/>
            <path fill="#FFF" d="M188.524 49.182h14.701c44.06 13.095 76.182 52.913 76.182 99.892v146.155c0 .892-.719 1.62-1.615 1.62-.892 0-1.619-.728-1.619-1.62V149.074c0-50.273-38.017-92.087-87.65-99.892M363.078 49.182h13.788l.87.026c44.125 13.216 76.32 53.58 76.32 101.199v148.06h-3.238v-148.06c0-50.965-38.065-93.355-87.74-101.225" transform="translate(0 2) translate(0 775)"/>
            <path fill="#000" d="M247.32 297.745L479.922 297.745 479.922 278.84 247.32 278.84z" transform="translate(0 2) translate(0 775)"/>
            <path fill="#FCC8B2" d="M281.922 539.026c.944 0 1.714-.558 1.714-1.247V278.312c0-.68-.77-1.23-1.714-1.23-.952 0-1.723.55-1.723 1.23v259.467c0 .689.77 1.247 1.723 1.247" transform="translate(0 2) translate(0 775)"/>
            <path fill="#343434" d="M244.377 296.506V154.433c0-53.71-42.706-97.398-95.2-97.398-52.502 0-95.199 43.688-95.199 97.398v142.073h190.399" transform="translate(0 2) translate(0 775)"/>
            <path fill="#343434" d="M100.61 295.494h57.88c6.6 0 11.952 5.354 11.952 11.956 0 6.606-5.351 11.953-11.953 11.953l-1.052-.052-54.524.052v-.226c-.748.148-1.515.226-2.303.226-6.606 0-11.956-5.347-11.956-11.953 0-6.602 5.35-11.956 11.956-11.956" transform="translate(0 2) translate(0 775)"/>
            <path fill="#FCC8B2" d="M146.537 307.45c0 6.606 5.346 11.953 11.952 11.953 6.602 0 11.953-5.347 11.953-11.953 0-6.602-5.351-11.956-11.953-11.956-6.606 0-11.952 5.354-11.952 11.956" transform="translate(0 2) translate(0 775)"/>
            <path fill="#FFF" d="M154.437 307.45c0 2.238 1.818 4.048 4.052 4.048 2.234 0 4.043-1.81 4.043-4.048 0-2.234-1.81-4.052-4.043-4.052-2.234 0-4.052 1.818-4.052 4.052" transform="translate(0 2) translate(0 775)"/>
            <path fill="#000" d="M9.32 278.2h249.775v-13.577c0-6.775 5.498-10.645 12.269-10.645 6.775 0 12.272 5.485 12.272 12.269v32.22H9.32c-5.151 0-9.32-4.177-9.32-9.324s4.169-10.944 9.32-10.944" transform="translate(0 2) translate(0 775)"/>
            <path fill="#FFF" d="M267.81 267.06c0 2.239 1.813 4.053 4.047 4.053 2.23 0 4.043-1.814 4.043-4.052 0-2.234-1.813-4.048-4.043-4.048-2.234 0-4.047 1.814-4.047 4.048" transform="translate(0 2) translate(0 775)"/>
            <path fill="#FE5814" d="M337.442 229.939L341.658 229.939 341.658 0 337.442 0z" transform="translate(0 2) translate(0 775)"/>
            <path fill="#FE5814" d="M340.121 33.139L385.84 16.567 340.121 0 340.121 33.139" transform="translate(0 2) translate(0 775)"/>
            <path fill="#FFF" d="M329.442 230.788c0 6.1 4.939 11.039 11.039 11.039s11.038-4.94 11.038-11.04c0-6.094-4.939-11.038-11.038-11.038-6.1 0-11.04 4.944-11.04 11.039" transform="translate(0 2) translate(0 775)"/>
            <path fill="#FCC8B2" d="M334.926 230.788c0 3.07 2.49 5.558 5.555 5.558 3.069 0 5.554-2.489 5.554-5.558 0-3.065-2.485-5.55-5.554-5.55-3.065 0-5.555 2.485-5.555 5.55" transform="translate(0 2) translate(0 775)"/>
            <g transform="translate(0 2) translate(0 775) translate(68.498 56.268)">
                <mask id="prefix__b" fill="#fff">
                    <use xlink:href="#prefix__a"/>
                </mask>
                <path stroke="#FCC8B2" stroke-width="2" d="M54.446 121.481L177.81 165.602 206.221 86.134 82.844 42.017 54.446 121.481" mask="url(#prefix__b)"/>
                <path fill="#9FABE7" d="M175.255 164.693L57.004 122.407 57.022 122.403 175.255 164.688 175.255 164.693" mask="url(#prefix__b)"/>
                <path stroke="#FCC8B2" stroke-width="2" d="M175.255 164.688L57.022 122.403 130.329 103.81 175.255 164.688" mask="url(#prefix__b)"/>
                <path fill="#FE5814" d="M204.684 85.58L123.061 124.095 84.39 42.563 204.684 85.58" mask="url(#prefix__b)"/>
            </g>
            <path fill="#343434" stroke="#FCC8B2" stroke-width="2" d="M66.558 267.385L190.108 223.792 162.022 144.208 38.463 187.81 66.558 267.385" transform="translate(0 2) translate(0 775)"/>
            <path fill="#343434" stroke="#FCC8B2" stroke-width="2" d="M69.126 266.489L114.29 205.801 187.554 224.697 69.126 266.489" transform="translate(0 2) translate(0 775)"/>
            <path fill="#FE5814" d="M160.481 144.749L121.45 226.126 40.009 187.268 160.481 144.749" transform="translate(0 2) translate(0 775)"/>
        </g>
        <g>
            <path stroke="#FCC8B2" stroke-width="2" d="M0.429 50.896L78.515 60.171 84.429 9.442 6.339 0.171 0.429 50.896" transform="translate(0 2) translate(393 159)"/>
            <path stroke="#FCC8B2" stroke-width="2" d="M2.429 51.229L42.891 30.171 77.429 60.171 2.429 51.229" transform="translate(0 2) translate(393 159)"/>
            <path fill="#FE5814" d="M83.429 9.245L40.962 43.171 7.429 0.171 83.429 9.245" transform="translate(0 2) translate(393 159)"/>
        </g>
        <g>
            <path stroke="#FCC8B2" stroke-width="2" d="M0 69.918L108.55 82.701 116.771 12.779 8.216 0 0 69.918" transform="translate(0 2) rotate(26 -412.951 291.776)"/>
            <path stroke="#FCC8B2" stroke-width="2" d="M2.247 70.19L58.385 41.351 106.303 82.437 2.247 70.19" transform="translate(0 2) rotate(26 -412.951 291.776)"/>
            <path fill="#FE5814" d="M115.424 12.619L56.277 59.203 9.571 0.16 115.424 12.619" transform="translate(0 2) rotate(26 -412.951 291.776)"/>
        </g>
        <g>
            <path stroke="#FCC8B2" stroke-width="2" d="M0.5 109.56L166.898 129.5 179.5 20.433 13.095 0.5 0.5 109.56" transform="translate(0 2) rotate(12 -2464.936 833.747)"/>
            <path stroke="#FCC8B2" stroke-width="2" d="M6.082 110.044L91.862 65.121 165.082 129.121 6.082 110.044" transform="translate(0 2) rotate(12 -2464.936 833.747)"/>
            <path fill="#FE5814" d="M179.796 19.675L89.276 92.262 17.796 0.262 179.796 19.675" transform="translate(0 2) rotate(12 -2464.936 833.747)"/>
        </g>
        <g>
            <path stroke="#FCC8B2" stroke-width="2" d="M0 35.652L55.921 45 62 9.346 6.077 0 0 35.652" transform="translate(0 2) translate(304)"/>
            <path stroke="#FCC8B2" stroke-width="2" d="M2 36.164L31.506 23 55 45 2 36.164" transform="translate(0 2) translate(304)"/>
            <path fill="#FE5814" d="M61 8.972L28.862 31 6 0 61 8.972" transform="translate(0 2) translate(304)"/>
        </g>
    </g>
</svg>
