<svg xmlns="http://www.w3.org/2000/svg" width="1443" height="1251" viewBox="0 0 1443 1251">
    <path fill="#FFF" fill-rule="evenodd" d="M1440 0v173.62l2.568.362-2.568 18.265V1091l-47.447.003c-42.809 46.53-114.361 73.074-192.056 64.849-28.846-3.054-55.848-10.643-80.085-21.733-89.512 83.2-227.064 129.095-375.492 113.382-128.974-13.654-240.301-71.096-313.457-151.612-36.36 10.023-76.325 13.565-117.69 9.186-21.334-2.258-41.869-6.5-61.35-12.468-11.762 47.975-63.232 84.1-124.944 84.1-62.396 0-114.322-36.93-125.328-85.705L0 1091V0h1440z"/>
</svg>
