<svg xmlns="http://www.w3.org/2000/svg" xmlns:xlink="http://www.w3.org/1999/xlink" width="544" height="500" viewBox="0 0 544 500">
    <defs>
        <path id="prefix__a" d="M0.175 0.125L419.163 0.125 419.163 386.103 0.175 386.103z"/>
        <path id="prefix__c" d="M0 499.876L543.764 499.876 543.764 0.401 0 0.401z"/>
    </defs>
    <g fill="none" fill-rule="evenodd">
        <path fill="#000" d="M366.337 391.503c-1.108 0-2.16-.671-2.55-1.76-.497-1.39.18-2.9 1.568-3.398 1.499-.535 3.021.193 3.516 1.582.498 1.39-.228 2.92-1.617 3.417-.303.107-.612.16-.917.16"/>
        <g transform="translate(75.879 .276)">
            <mask id="prefix__b" fill="#fff">
                <use xlink:href="#prefix__a"/>
            </mask>
            <path fill="#000" d="M196.945 5.472l-.276-.003c-1.475-.023-2.652-1.237-2.629-2.713.024-1.476 1.17-2.579 2.714-2.631 1.466.024 2.758 1.226 2.746 2.694-.01 1.468-1.087 2.653-2.555 2.653zm-14.869.433c-1.4 0-2.578-1.094-2.664-2.511-.091-1.474 1.032-2.741 2.505-2.83 1.484-.048 2.855 1.025 2.945 2.496.09 1.473-.914 2.733-2.386 2.824-.002.002-.233.016-.236.016-.054.003-.109.005-.164.005zm29.065.127c-1.473-.11-2.574-1.394-2.463-2.867.112-1.469 1.373-2.598 2.867-2.462l.028 2.682-.432 2.647zm-43.639 1.297c-1.316 0-2.462-.971-2.645-2.31-.2-1.464.823-2.811 2.286-3.01l.262-.033c1.465-.193 2.8.856 2.983 2.32.183 1.465-.856 2.8-2.322 2.982l-.33-2.651.13 2.678c-.123.016-.245.024-.364.024zm58.62.336c-.12 0-.243-.008-.367-.026l-.26-.038c-1.46-.22-2.464-1.583-2.243-3.043.222-1.458 1.577-2.481 3.043-2.24 1.453.22 2.572 1.59 2.36 3.044-.195 1.33-1.242 2.303-2.534 2.303zm-73.063 2.072c-1.26 0-2.383-.896-2.624-2.18-.27-1.452.683-2.848 2.134-3.119 1.43-.274 2.948.65 3.231 2.091.281 1.442-.54 2.817-1.977 3.11-.014.002-.254.05-.268.051-.167.033-.333.047-.496.047zm87.453.573c-.181 0-.37-.019-.557-.06l-.243-.054c-1.441-.325-2.343-1.756-2.02-3.196.327-1.44 1.76-2.333 3.196-2.018 1.437.324 2.452 1.774 2.134 3.212-.279 1.248-1.302 2.116-2.51 2.116zm-101.703 2.811c-1.182 0-2.262-.79-2.581-1.986-.378-1.426.471-2.89 1.899-3.269 1.4-.378 2.992.434 3.378 1.856.383 1.421-.343 2.855-1.763 3.244-.008 0-.238.064-.245.065-.229.062-.46.09-.688.09zm115.882.891c-.26 0-.521-.038-.783-.117l.783-2.556-.966 2.5c-1.418-.41-2.234-1.894-1.822-3.31.413-1.419 1.908-2.225 3.311-1.823.014.003.247.075.26.078 1.41.432 2.205 1.928 1.772 3.338-.353 1.15-1.411 1.89-2.555 1.89zm-128.925 3.295l-1.818-5.027c.006-.002.235-.082.245-.084 1.396-.476 2.914.277 3.388 1.673.473 1.4-.277 2.916-1.676 3.39l-.856-2.532.717 2.58zm142.766 1.479c-.33 0-.667-.06-.992-.192l.992-2.481-1.147 2.422c-1.382-.514-2.09-2.052-1.575-3.436.512-1.385 2.051-2.094 3.435-1.575.022.006.257.1.279.108 1.37.548 2.036 2.103 1.49 3.473-.42 1.046-1.424 1.68-2.482 1.68zm-157.348 4.013c-1.047 0-2.039-.619-2.467-1.645-.568-1.362.076-2.928 1.44-3.495 1.356-.566 3.018.024 3.594 1.377.574 1.35.057 2.867-1.29 3.452l-.249.105c-.335.14-.685.206-1.028.206zm170.706 1.832c-.366 0-.74-.082-1.102-.257l-.211-.1c-1.328-.643-1.885-2.242-1.242-3.57.64-1.33 2.236-1.885 3.568-1.244 1.327.643 1.99 2.291 1.349 3.62-.468.966-1.385 1.551-2.362 1.551zM97.96 29.089c-.969 0-1.901-.527-2.377-1.445-.678-1.311-.165-2.924 1.147-3.602 1.306-.674 3.026-.221 3.703 1.093.678 1.311.27 2.87-1.041 3.549l-.208.107c-.392.202-.81.298-1.224.298zm196.8 2.474c-.43 0-.868-.113-1.278-.354l-.23-.137c-1.261-.766-1.663-2.41-.897-3.672.766-1.263 2.415-1.66 3.67-.898 1.257.762 1.761 2.455 1.007 3.716-.509.853-1.375 1.345-2.272 1.345zM85.241 36.338c-.875 0-1.734-.43-2.245-1.22-.802-1.237-.45-2.892.79-3.695.02-.014.242-.151.263-.165 1.259-.768 2.905-.365 3.671.898.766 1.262.364 2.906-.897 3.672l-1.387-2.285 1.256 2.364c-.45.292-.954.431-1.45.431zm221.76 3.226c-.496 0-.995-.149-1.445-.465l-.228-.163c-1.192-.87-1.451-2.543-.58-3.735.87-1.193 2.54-1.45 3.734-.58 1.185.864 1.544 2.59.69 3.782-.535.746-1.346 1.16-2.172 1.16zM74.828 43.92l-1.72-2.055-1.54-2.185c1.204-.843 2.952-.632 3.804.56.857 1.191.685 2.782-.5 3.647l-1.577-2.158 1.533 2.19zm243.07 5.307c-.705 0-1.395-.29-1.904-.884l2.03-1.74-2.085 1.675 1.933-1.85 2.029-1.738c.96 1.12.906 2.895-.214 3.855-.529.452-1.164.682-1.79.682zM61.672 53.67c-.742 0-1.482-.309-2.01-.912-.973-1.111-.86-2.8.25-3.772l.193-.167c1.117-.96 2.804-.84 3.77.284.961 1.119.835 2.806-.285 3.768l-1.741-2.026 1.584 2.164c-.507.444-1.135.661-1.76.661zm264.398 7.626c-.92 0-1.786-.475-2.248-1.364-.012-.021-.126-.251-.138-.273-.64-1.33-.083-2.927 1.247-3.568 1.323-.645 2.926-.086 3.569 1.244.635 1.317.147 3.002-1.162 3.657-.411.204-.844.304-1.268.304zM51.03 63.704c-.654 0-1.311-.24-1.827-.722-1.078-1.009-1.133-2.7-.124-3.778.019-.022.202-.207.224-.228 1.041-1.042 2.735-1.042 3.777 0 1.045 1.044 1.045 2.735 0 3.78l-1.889-1.89 1.79 1.99c-.526.564-1.238.848-1.951.848zm209.956 9.12c-.043 0-.083 0-.123-.003l-.238-.01c-1.472-.07-2.612-1.32-2.543-2.795.069-1.476 1.299-2.623 2.795-2.544 1.473.07 2.729 1.324 2.66 2.798-.067 1.432-1.137 2.555-2.55 2.555zm-14.866.292c-1.368 0-2.534-1.043-2.66-2.431-.133-1.469.95-2.77 2.42-2.904 1.463-.119 2.883.938 3.019 2.405.136 1.47-.828 2.76-2.296 2.897l-.238.022c-.083.008-.164.011-.245.011zm29.438 1.178c-.136 0-.276-.01-.414-.032l.412-2.641-.593 2.613c-1.463-.198-2.486-1.546-2.286-3.01.2-1.458 1.527-2.473 3.01-2.286l.28.042c1.458.229 2.457 1.595 2.229 3.054-.207 1.318-1.344 2.26-2.638 2.26zm-234.29.303c-.575 0-1.158-.186-1.646-.57-1.16-.91-1.365-2.59-.454-3.752l.205-.25c.947-1.13 2.628-1.279 3.765-.326 1.13.95 1.276 2.634.327 3.765l-2.046-1.72 1.955 1.83c-.528.672-1.313 1.023-2.105 1.023zm289.906.383c-1.163 0-2.2-.72-2.502-1.91l-.06-.236c-.357-1.432.514-2.883 1.946-3.241 1.428-.355 2.881.514 3.24 1.945.357 1.43-.482 2.992-1.912 3.353-.238.06-.479.089-.712.089zm-98.53.667l-.897-2.521-.724-2.573c1.406-.393 3 .39 3.404 1.806.405 1.415-.3 2.858-1.713 3.268l-.744-2.567.673 2.587zm57.26 1.504c-.193 0-.393-.022-.593-.07-.02-.004-.267-.063-.286-.07-1.427-.368-2.288-1.825-1.92-3.253.37-1.431 1.825-2.299 3.257-1.92 1.419.365 2.389 1.831 2.04 3.253-.3 1.222-1.314 2.06-2.498 2.06zm14.064 4.046c-.26 0-.523-.04-.79-.127l-.257-.084c-1.399-.473-2.148-1.99-1.674-3.389.473-1.397 1.99-2.15 3.387-1.673 1.392.47 2.253 2.012 1.791 3.406-.373 1.13-1.356 1.867-2.457 1.867zm-85.747.164c-.994 0-1.948-.556-2.407-1.51-.642-1.329-.086-2.927 1.242-3.57l1.373 2.306.954 2.507c-.376.181-.771.267-1.162.267zM32.486 86.299c-.54 0-1.082-.162-1.555-.5-1.199-.86-1.473-2.53-.614-3.73.851-1.183 2.558-1.565 3.756-.736 1.202.83 1.58 2.371.772 3.584l-.184.267c-.52.728-1.342 1.115-2.175 1.115zm285.186.023c-.323 0-.654-.064-.98-.2l-.214-.089c-1.363-.567-2.008-2.133-1.439-3.495.569-1.364 2.131-2.008 3.495-1.439 1.363.567 2.115 2.177 1.546 3.54-.433 1.036-1.38 1.683-2.408 1.683zm-112.3 2.046c-.876 0-1.735-.43-2.246-1.22-.802-1.237-.45-2.892.79-3.695.02-.014.242-.151.263-.165 1.257-.766 2.906-.364 3.672.898s.363 2.906-.897 3.672l-1.387-2.285 1.256 2.365c-.45.29-.954.43-1.451.43zm125.64 4.105c-.414 0-.833-.096-1.226-.299l1.228-2.374-1.401 2.285c-1.32-.66-1.856-2.266-1.197-3.586.46-.918 1.377-1.457 2.336-1.477-.002-.058-.012-.216-.012-.216-.09-1.473 1.033-2.74 2.506-2.83 1.458-.07 2.74 1.034 2.828 2.507.089 1.445-.983 2.804-2.415 2.939.077.532-.004 1.092-.27 1.606-.476.918-1.409 1.445-2.377 1.445zm-137.57 4.37c-.78 0-1.552-.341-2.08-.994-.928-1.15-.75-2.831.4-3.76 1.14-.92 2.911-.825 3.841.32.93 1.142.852 2.746-.288 3.679-.004.005-.19.156-.194.16-.496.4-1.088.594-1.678.594zM24.77 98.727c-.45 0-.906-.112-1.322-.351-1.283-.733-1.728-2.365-.995-3.648.726-1.277 2.41-1.828 3.695-1.1 1.28.726 1.79 2.25 1.07 3.533-.005.006-.121.214-.126.22-.492.862-1.394 1.346-2.322 1.346zm318.953.869c-.44 0-.889-.119-1.305-.372l-.2-.122c-1.261-.766-1.663-2.41-.897-3.672.766-1.263 2.412-1.66 3.67-.897 1.262.765 1.763 2.47.998 3.732-.512.845-1.373 1.331-2.266 1.331zm-10.626 4.469c-.077 0-.153-.004-.229-.01-1.47-.136-2.562-1.322-2.427-2.792l.022-.231c.138-1.47 1.42-2.565 2.907-2.416 1.47.135 2.553 1.436 2.417 2.907-.128 1.393-1.316 2.542-2.69 2.542zm-150.152 2.955c-.628 0-1.258-.22-1.765-.666-1.108-.976-1.215-2.665-.24-3.772.97-1.107 2.729-1.303 3.835-.34 1.109.963 1.309 2.552.352 3.668-.007.01-.166.194-.176.202-.528.601-1.266.908-2.006.908zm173.04.725c-.547 0-1.1-.167-1.575-.515l1.577-2.158-1.753 2.03c-1.196-.864-1.465-2.535-.602-3.73.866-1.197 2.536-1.467 3.733-.603.002.003.195.143.2.146 1.192.87 1.45 2.543.58 3.735-.523.716-1.337 1.095-2.16 1.095zm-337.802 4.045c-.379 0-.762-.081-1.128-.252-1.337-.624-1.915-2.214-1.292-3.551.619-1.327 2.232-2.018 3.574-1.41 1.334.606 1.98 2.065 1.389 3.406-.007.018-.112.246-.12.264-.453.972-1.417 1.543-2.423 1.543zm349.135 5.058c-.59 0-1.182-.209-1.672-.649l1.784-1.99-1.848 1.932 1.675-2.086 1.784-1.99c1.099.984 1.277 2.75.293 3.85-.545.61-1.28.933-2.016.933zm-36.624 1.658c-.188 0-.378-.022-.569-.066-1.422-.336-2.338-1.64-2.022-3.068l.07-.294c.358-1.433 1.814-2.295 3.24-1.946 1.431.359 2.302 1.81 1.945 3.242-.307 1.23-1.441 2.132-2.664 2.132zm-156.018.558c-.442 0-.892-.11-1.306-.342-1.287-.722-1.744-2.352-1.023-3.639.713-1.272 2.376-1.838 3.654-1.146 1.285.692 1.83 2.181 1.161 3.477l-.152.286c-.492.873-1.399 1.364-2.334 1.364zm-161.9 6.315c-.272 0-.548-.042-.822-.13-1.403-.453-2.176-1.96-1.722-3.364l.104-.305c.503-1.39 2.037-2.099 3.422-1.608 1.39.501 2.108 2.033 1.608 3.421l-2.515-.906 2.467 1.04c-.363 1.13-1.412 1.852-2.543 1.852zm365.2 1.656c-.713 0-1.425-.284-1.95-.845l1.95-1.827-2.088 1.68c-1.02-1.066-.985-2.758.08-3.778 1.064-1.018 2.756-.987 3.778.079l.181.192c1.01 1.077.954 2.768-.123 3.777-.517.483-1.174.722-1.827.722zm-51.414 5.63c-.303 0-.607-.05-.907-.158-1.39-.5-2.108-2.033-1.608-3.42l2.515.906-2.442-1.113c.496-1.391 2.018-2.121 3.415-1.625 1.389.494 2.117 2.022 1.624 3.412-.002.004-.083.228-.083.232-.393 1.09-1.42 1.766-2.514 1.766zm-156.79.135c-.187 0-.38-.02-.573-.062-1.44-.315-2.355-1.74-2.038-3.182.312-1.428 1.746-2.454 3.164-2.163 1.432.29 2.386 1.562 2.117 2.998-.005.026-.054.28-.062.307-.27 1.25-1.38 2.102-2.607 2.102zm217.52 5.352c-.751 0-1.481-.328-1.986-.985-.014-.018-.169-.22-.18-.239-.871-1.191-.612-2.864.58-3.735 1.192-.868 2.864-.611 3.735.581.863 1.182.687 2.931-.485 3.809-.505.38-1.09.57-1.663.57zM8.56 139.385c-.22 0-.44-.026-.662-.082-1.43-.365-2.295-1.818-1.931-3.249.361-1.431 1.843-2.416 3.278-2.045 1.43.363 2.324 1.705 1.96 3.136l-.057.225c-.307 1.21-1.394 2.015-2.588 2.015zm312.278 6.642c-.379 0-.76-.082-1.114-.258-1.309-.647-1.906-2.118-1.28-3.436.015-.027.129-.264.143-.291.678-1.31 2.293-1.822 3.602-1.147 1.31.678 1.825 2.291 1.146 3.602-.487.943-1.486 1.53-2.497 1.53zm-151.589 1.336c-1.332 0-2.483-.992-2.65-2.347-.18-1.463.845-2.912 2.31-3.093 1.456-.197 2.784.742 2.967 2.206l.029.235c.18 1.464-.861 2.798-2.327 2.979-.11.012-.221.02-.329.02zm226.306 3.01c-.928 0-1.83-.484-2.322-1.346l2.32-1.327-2.413 1.169c-.756-1.268-.34-2.909.928-3.665 1.264-.755 2.907-.34 3.664.927l.14.243c.733 1.283.288 2.914-.994 3.647-.417.24-.873.352-1.323.352zm-387.386.989l-2.652-.34-2.63-.486 2.67.256 2.612.57zm305.538 7.455c-.472 0-.944-.124-1.363-.39-1.234-.786-1.67-2.32-.901-3.562.014-.02.15-.236.161-.255.812-1.234 2.463-1.58 3.7-.773 1.235.81 1.582 2.465.773 3.7-.53.808-1.451 1.28-2.37 1.28zm-140.46 2.575c-1.007 0-1.97-.571-2.425-1.543l-.126-.28c-.585-1.355.036-2.928 1.39-3.516 1.36-.589 2.925.037 3.516 1.39l-2.453 1.063 2.517-.917c.623 1.337.045 2.927-1.292 3.552-.367.17-.75.25-1.128.25zm228.75 1.964c-.992 0-1.91-.54-2.336-1.522l-.119-.284c-.547-1.37.12-2.925 1.49-3.473 1.37-.552 2.923.116 3.473 1.489.542 1.356-.06 3.004-1.409 3.566-.361.151-.735.224-1.099.224zM3.632 168.14c-.079 0-.157-.004-.238-.01-1.47-.137-2.558-1.38-2.422-2.85.136-1.471 1.463-2.66 2.919-2.532 1.47.136 2.562 1.321 2.426 2.79-.14 1.506-1.315 2.602-2.685 2.602zm301.598 2.59c-.578 0-1.153-.179-1.625-.562-1.132-.918-1.389-2.486-.49-3.634.02-.022.184-.227.202-.25.947-1.13 2.631-1.28 3.766-.327 1.13.95 1.276 2.635.327 3.765-.548.653-1.369 1.009-2.18 1.009zm-126.515 2.095c-.902-1.17-.755-2.94.416-3.84 1.175-.902 2.779-.771 3.676.397l-2.118 1.63 2.182-1.548-2.04 1.732-2.116 1.63zm228.082 4.34c-1.132 0-2.148-.684-2.476-1.836-.008-.025-.077-.275-.083-.3-.365-1.432.501-2.885 1.93-3.25 1.429-.358 2.887.502 3.25 1.934.36 1.415-.454 2.97-1.862 3.35-.255.068-.509.102-.759.102zm-111.383 4.402c-.692 0-1.377-.252-1.882-.773-1.022-1.056-1.082-2.66-.033-3.689.007-.006.181-.175.188-.18 1.061-1.019 2.755-.986 3.778.08 1.02 1.065.985 2.758-.08 3.778-.538.516-1.26.784-1.97.784zM2.847 182.806c-1.475 0-2.672-1.197-2.672-2.672l.005-.313c.045-1.476 1.272-2.56 2.755-2.59 1.475.045 2.633 1.279 2.588 2.754l-2.672-.082 2.667.23c0 1.476-1.196 2.673-2.671 2.673zm188.024 1.694c-.627 0-1.258-.22-1.765-.666l-.192-.172c-1.1-.983-1.192-2.673-.208-3.772.986-1.097 2.677-1.194 3.776-.207l-1.784 1.99 1.939-1.852c1.108.975 1.216 2.664.24 3.772-.528.6-1.266.907-2.006.907zm93.395 6.503c-.83 0-1.648-.358-2.157-1.059-.866-1.191-.7-2.79.49-3.66l.2-.145c1.199-.868 2.866-.597 3.732.602.864 1.196.595 2.867-.602 3.73-.492.356-1.08.532-1.663.532zm125.883.415c-1.203 0-2.265-.762-2.533-1.994-.007-.023-.06-.274-.065-.298-.275-1.45.676-2.849 2.127-3.125 1.466-.277 2.85.678 3.126 2.126.273 1.436-.635 2.938-2.067 3.232-.198.04-.395.06-.588.06zm-207.663 1.979c-.51 0-1.026-.146-1.48-.45-1.227-.818-1.656-2.542-.838-3.77.822-1.229 2.387-1.623 3.61-.805l.192.128c1.228.82 1.56 2.478.742 3.706-.516.773-1.363 1.19-2.226 1.19zm-199.39 4.05c-1.436 0-2.624-1.143-2.669-2.591-.045-1.46 1.085-2.8 2.543-2.868 1.423-.088 2.696.934 2.784 2.39.002.027.016.286.016.314.046 1.474-1.113 2.709-2.588 2.754h-.085zm268.723 1.156c-1.01 0-1.996-.53-2.45-1.47-.637-1.316-.202-2.848 1.106-3.502l.274-.133c1.34-.625 2.926-.047 3.552 1.291.623 1.337.045 2.927-1.292 3.552-.378.176-.785.262-1.19.262zm-56.52 1.845c-.366 0-.738-.075-1.094-.236-1.34-.603-2.048-2.22-1.456-3.563.595-1.345 2.05-2.008 3.402-1.421.01.006.236.105.247.11 1.347.605 1.946 2.187 1.34 3.534-.446.99-1.418 1.576-2.439 1.576zm42.903 3.354c-1.206 0-2.36-.773-2.674-1.967-.371-1.417.355-2.839 1.767-3.226l.284-.075c1.43-.352 2.88.512 3.24 1.945.357 1.432-.514 2.883-1.946 3.241-.221.055-.447.082-.671.082zm-28.962 1.04c-.176 0-.355-.018-.536-.054-1.446-.293-2.492-1.728-2.2-3.175.295-1.444 1.56-2.408 3.038-2.11l.228.047c1.447.294 2.38 1.704 2.087 3.15-.257 1.268-1.373 2.142-2.617 2.142zm183.716 1.07c-1.294 0-2.43-.943-2.638-2.26l2.64-.414-2.666.256c-.266-1.451.692-2.845 2.143-3.113 1.459-.28 2.846.692 3.115 2.143.004.023.045.278.05.301.228 1.459-.771 2.826-2.23 3.054-.138.022-.278.032-.414.032zm-169.39.1c-1.436 0-2.624-1.145-2.669-2.593-.045-1.475 1.116-2.707 2.591-2.752l.08 2.671.108-2.677c1.47-.094 2.727 1.068 2.795 2.544.07 1.474-1.07 2.725-2.543 2.794l-.278.01-.084.002zm-239.415 6.04c-1.366 0-2.532-1.04-2.66-2.426-.003-.027-.022-.287-.022-.314-.09-1.473 1.03-2.74 2.503-2.832 1.432-.085 2.743 1.03 2.831 2.504l-2.667.164 2.679-.013c.135 1.469-.947 2.77-2.417 2.906-.083.008-.167.012-.247.012zm410.813 8.244c-1.318 0-2.443-.89-2.607-2.233l-.034-.307c-.137-1.47.94-2.772 2.41-2.91 1.504-.147 2.775.941 2.91 2.41.138 1.456-.907 2.865-2.357 3.023-.11.012-.217.017-.322.017zM5.18 226.657c-1.4 0-2.579-1.09-2.664-2.508-.09-1.474 1.023-2.858 2.496-2.948 1.51-.1 2.733.914 2.824 2.388l.014.232c.09 1.473-1.03 2.74-2.503 2.832-.055.002-.112.004-.167.004zm411.036 8.228c-1.397 0-2.56-.982-2.646-2.393-.002-.028-.017-.287-.017-.314-.045-1.475 1.114-2.709 2.589-2.754 1.506-.014 2.71 1.113 2.755 2.59.045 1.46-1.085 2.8-2.544 2.868-.045.002-.092.003-.137.003zM6.049 241.276c-1.437 0-2.624-1.142-2.67-2.588-.045-1.46 1.085-2.802 2.544-2.869 1.437-.079 2.695.935 2.783 2.39l.016.312c.046 1.475-1.113 2.708-2.587 2.755h-.086zm410.44 8.363c-1.558-.046-2.719-1.278-2.674-2.753l2.672.08-2.667-.232c0-1.475 1.197-2.672 2.672-2.672 1.474 0 2.671 1.197 2.671 2.672l-.004.314c-.046 1.449-1.233 2.59-2.67 2.59zM6.71 255.905c-1.4 0-2.577-1.09-2.665-2.505-.002-.029-.013-.29-.013-.319-.046-1.475 1.115-2.707 2.59-2.752 1.49.026 2.707 1.113 2.753 2.59L6.703 253l2.676.067c.093 1.472-1.027 2.74-2.5 2.833-.057.005-.114.005-.169.005zm408.856 8.222c-.088 0-.176-.005-.264-.015-1.453-.154-2.524-1.334-2.386-2.79 0-.024.028-.278.03-.302.177-1.466 1.492-2.527 2.974-2.332 1.466.177 2.51 1.509 2.332 2.974-.164 1.363-1.34 2.465-2.686 2.465zM7.07 270.54c-1.436 0-2.624-1.142-2.669-2.589l-.002-.317c0-1.474 1.196-2.671 2.671-2.671 1.475 0 2.672 1.197 2.672 2.671H7.069l2.675.15c.044 1.476-1.114 2.708-2.589 2.756H7.07zm406.256 8.164c-.188 0-.38-.02-.573-.064-1.442-.314-2.355-1.739-2.04-3.181l2.611.571-2.579-.72c.271-1.45 1.656-2.408 3.119-2.135 1.451.271 2.405 1.668 2.134 3.12-.005.025-.057.28-.064.306-.272 1.25-1.38 2.103-2.608 2.103zm-406.38 6.476c-1.56-.048-2.719-1.28-2.673-2.755.045-1.475 1.337-2.712 2.757-2.705 1.475.045 2.638 1.16 2.593 2.636l-.007.236c-.045 1.446-1.232 2.588-2.67 2.588zm402.6 7.544c-.255 0-.511-.039-.764-.12-1.403-.454-2.212-1.848-1.758-3.254l.072-.22c.452-1.405 1.948-2.18 3.363-1.724 1.404.453 2.177 1.959 1.722 3.365-.37 1.15-1.476 1.953-2.635 1.953zm-5.339 13.733c-.39 0-.785-.085-1.158-.266-1.33-.642-1.887-2.24-1.247-3.568l2.408 1.16-2.355-1.272c.587-1.354 2.152-1.977 3.516-1.39 1.353.588 1.975 2.16 1.39 3.517-.015.033-.13.275-.143.307-.462.956-1.416 1.512-2.411 1.512zm-6.965 12.738c-.471 0-.942-.124-1.361-.39-1.227-.78-1.666-2.3-.911-3.543.019-.033.162-.261.183-.292.82-1.227 2.48-1.559 3.707-.743 1.227.819 1.56 2.48.742 3.707-.534.797-1.447 1.26-2.36 1.26zm-8.427 11.955c-.573 0-1.144-.18-1.613-.555-1.149-.923-1.406-2.512-.485-3.664.002-.002.15-.185.152-.19.928-1.15 2.61-1.325 3.759-.4 1.149.928 1.327 2.61.4 3.76-.548.677-1.385 1.049-2.213 1.049zm-9.703 10.926c-.679 0-1.347-.24-1.85-.742-1.044-1.045-1.125-2.655-.08-3.697l.164-.164c1.042-1.047 2.736-1.047 3.778 0 1.044 1.042 1.044 2.736 0 3.778-.542.542-1.282.825-2.012.825zm-10.766 9.89c-.761 0-1.513-.302-2.024-.912-.95-1.13-.893-2.74.238-3.69l.178-.15c1.132-.953 2.817-.8 3.766.326.95 1.133.804 2.817-.326 3.767-.52.438-1.18.659-1.832.659zm-11.585 8.906c-.852 0-1.687-.373-2.194-1.098-.842-1.206-.647-2.803.559-3.65.005-.002.2-.14.207-.145 1.211-.84 2.879-.537 3.719.679.84 1.212.537 2.875-.678 3.717-.48.334-1.052.497-1.613.497zm-12.238 8.006c-.914 0-1.81-.43-2.303-1.242-.766-1.263-.464-2.845.797-3.611l.2-.121c1.258-.769 2.905-.367 3.67.896.767 1.261.364 2.905-.896 3.671-.45.274-.961.407-1.468.407zm-13.127 6.416c-1.066 0-2.104-.592-2.527-1.608-.561-1.349-.043-2.855 1.297-3.435l.285-.12c1.373-.551 2.924.12 3.473 1.49.547 1.37-.119 2.926-1.489 3.473-.335.136-.69.2-1.04.2zm-13.57 5.526c-1.085 0-2.139-.616-2.55-1.657-.539-1.369.02-2.872 1.387-3.417.009-.004.235-.092.242-.097 1.38-.528 2.924.15 3.459 1.527.533 1.378-.152 2.926-1.527 3.46-.328.125-.671.184-1.011.184zm-13.668 5.282c-1.101 0-2.17-.635-2.57-1.694-.513-1.36.05-2.842 1.402-3.383.034-.014.28-.11.314-.121 1.397-.49 2.92.233 3.414 1.625.493 1.392-.235 2.918-1.624 3.414-.305.107-.622.159-.936.159z" mask="url(#prefix__b)"/>
        </g>
        <path fill="#000" d="M287.245 6.325l.207-2.664-.207 2.664zM81.261 300.43c-.319 0-.644-.057-.958-.178-1.378-.531-2.065-2.077-1.537-3.455.525-1.368 2.074-2.105 3.442-1.596 1.373.51 2.098 1.98 1.606 3.357l-.057.157c-.41 1.063-1.423 1.715-2.496 1.715M299.169 499.801H44.694c-1.475 0-2.672-1.196-2.672-2.671 0-1.475 1.197-2.672 2.672-2.672h254.475c1.475 0 2.671 1.197 2.671 2.672s-1.196 2.671-2.671 2.671M541.092 499.801H319.155c-1.475 0-2.672-1.196-2.672-2.671 0-1.475 1.197-2.672 2.672-2.672h221.937c1.475 0 2.672 1.197 2.672 2.672s-1.197 2.671-2.672 2.671"/>
        <path fill="#FE5814" d="M92.336 89.886c9.368 0 16.964 7.593 16.964 16.962 0 9.368-7.596 16.965-16.964 16.965-9.369 0-16.965-7.597-16.965-16.965 0-9.369 7.596-16.962 16.965-16.962M357.033 7.617c6.804 0 12.319 5.512 12.319 12.316 0 6.804-5.515 12.316-12.319 12.316-6.801 0-12.316-5.512-12.316-12.316 0-6.804 5.515-12.316 12.316-12.316M492.29 255.816c6.801 0 12.315 5.515 12.315 12.317 0 6.8-5.514 12.318-12.316 12.318-6.801 0-12.318-5.517-12.318-12.318 0-6.802 5.517-12.317 12.318-12.317"/>
        <mask id="prefix__d" fill="#fff">
            <use xlink:href="#prefix__c"/>
        </mask>
        <path d="M207.111 496.881L321.91 496.881 321.91 382.082 207.111 382.082z" mask="url(#prefix__d)"/>
        <path stroke="#000" stroke-width="5.99" d="M210.91 496.881L321.91 496.881 321.91 382.881 210.91 382.881z" mask="url(#prefix__d)"/>
        <path d="M94.981 496.881L209.78 496.881 209.78 382.082 94.981 382.082z" mask="url(#prefix__d)"/>
        <path stroke="#000" stroke-width="5.99" d="M95.981 497.881L210.78 497.881 210.78 383.082 95.981 383.082z" mask="url(#prefix__d)"/>
        <path d="M212.975 274.562v22.998c.728.495 1.415 1.046 2.061 1.658.06.056.106.116.156.175.035.03.064.065.097.097 1.317.59 2.541 1.368 3.631 2.412.365-.105.734-.08 1.075.034.867-.331 1.947.092 2.409.881.259.442.31.924.214 1.377.552.015 1.103.027 1.656.03 2.06.013 2.467 2.574 1.228 3.587 2.203 1.315 4.113 3.119 5.645 5.264 5.059 7.087 5.34 17.083.766 24.45-.265.426-.549.832-.84 1.23-.135 1.973-.807 3.785-1.88 5.614-.565.963-1.534 1.128-2.345.825-.745 1.153-1.48 2.311-2.048 3.568-.537 1.188-1.685 1.249-2.55.719-1.767 2.17-3.891 3.885-6.896 4.213-.71.484-1.524.837-2.38 1.006v28.456h109.462V274.562H212.975z" mask="url(#prefix__d)"/>
        <path fill="#000" d="M210.306 271.893v24.679c.426-.105.906-.062 1.397.204 1.226.662 2.323 1.485 3.333 2.442.06.056.106.116.155.175.2.171.35.372.456.59v-22.75h104.117v103.252H215.647v-26.99c-1.164.888-2.662 1.395-4.153 1.315-.434-.024-.85-.167-1.188-.41v31.426h114.799V271.893h-114.8z" mask="url(#prefix__d)"/>
        <path fill="#000" d="M210.3 293.575c.014 2.029.044 4.053-.004 6.073 12.782 2.477 22.467 13.745 22.467 27.24 0 13.565-9.784 24.88-22.663 27.28-.019.049-.04.099-.062.15.024 1.97.088 3.936.115 5.9 16.17-2.487 28.6-16.474 28.6-33.33 0-16.805-12.353-30.763-28.452-33.313" mask="url(#prefix__d)"/>
        <path fill="#FFFBF9" d="M285.447 382.315c0 11.562-9.374 20.935-20.936 20.935-11.564 0-20.937-9.373-20.937-20.935s9.373-20.935 20.937-20.935c11.562 0 20.936 9.373 20.936 20.935" mask="url(#prefix__d)"/>
        <path fill="#000" d="M264.511 364.45c-9.851 0-17.866 8.016-17.866 17.865 0 9.85 8.015 17.864 17.866 17.864 9.85 0 17.864-8.015 17.864-17.864 0-9.85-8.015-17.864-17.864-17.864m0 41.87c-13.239 0-24.008-10.77-24.008-24.006 0-13.237 10.77-24.007 24.008-24.007 13.237 0 24.007 10.77 24.007 24.007 0 13.236-10.77 24.006-24.007 24.006" mask="url(#prefix__d)"/>
        <path fill="#FFFBF9" d="M225.544 408.866L303.863 408.866 303.863 386.232 225.544 386.232z" mask="url(#prefix__d)"/>
        <path fill="#FE5814" d="M42.861 269.484c-20.78-1.2-38.6 14.672-39.802 35.453-1.202 20.781 14.671 38.601 35.452 39.803 1.45.083 2.901.083 4.35 0H152.27c16.248-.007 29.414-13.184 29.407-29.432-.007-16.238-13.17-29.4-29.407-29.407h-2.095c3.47-25.043-14.02-48.157-39.062-51.626-25.042-3.469-48.156 14.02-51.624 39.062-5.172-2.546-10.862-3.864-16.627-3.853" mask="url(#prefix__d)"/>
        <path stroke="#000" stroke-width="5.99" d="M42.861 269.484c-20.78-1.2-38.6 14.672-39.802 35.453-1.202 20.781 14.671 38.601 35.452 39.803 1.45.083 2.901.083 4.35 0H152.27c16.248-.007 29.414-13.184 29.407-29.432-.007-16.238-13.17-29.4-29.407-29.407h-2.095c3.47-25.043-14.02-48.157-39.062-51.626-25.042-3.469-48.156 14.02-51.624 39.062-5.172-2.546-10.862-3.864-16.627-3.853z" mask="url(#prefix__d)"/>
    </g>
</svg>
