<svg xmlns="http://www.w3.org/2000/svg" xmlns:xlink="http://www.w3.org/1999/xlink" width="155" height="49" viewBox="0 0 155 49">
    <defs>
        <linearGradient id="prefix__b" x1="11.024%" x2="92.12%" y1="38.525%" y2="72.972%">
            <stop offset="0%" stop-color="#FD9714"/>
            <stop offset="100%" stop-color="#FD5714"/>
        </linearGradient>
        <path id="prefix__a" d="M13.504 11.906C5.972 12.527.05 18.833.05 26.526c0 7.392 5.468 13.505 12.578 14.522v.152h21.026c2.255-1.065 3.83-3.44 3.83-6.195 0-3.56-2.76-6.485-6.223-6.678h-2.012v-3.438h1.596v-.01h.05c.151 0 .301.003.45.01h.3v.018c5.155.39 9.233 4.77 9.233 10.098 0 2.27-.736 4.428-2.088 6.195h3.785v-.06c7.496-.658 13.376-6.947 13.376-14.614 0-7.014-4.922-12.874-11.5-14.324H25.266c-3.537 0-6.414 2.854-6.414 6.363 0 3.387 2.687 6.17 6.058 6.354h1.965v3.294l-1.61.01c-.146 0-.292-.003-.437-.01h-.297v-.017c-5.023-.374-8.996-4.551-8.996-9.631 0-5.113 4.024-9.31 9.093-9.637v-.02h16.736C39.106 3.708 33.929.072 27.9.072c-7.132 0-13.074 5.09-14.397 11.833"/>
    </defs>
    <g fill="none" fill-rule="evenodd">
        <mask id="prefix__c" fill="#fff">
            <use xlink:href="#prefix__a"/>
        </mask>
        <path fill="url(#prefix__b)" d="M13.504 11.906C5.972 12.527.05 18.833.05 26.526c0 7.392 5.468 13.505 12.578 14.522v.152h21.026c2.255-1.065 3.83-3.44 3.83-6.195 0-3.56-2.76-6.485-6.223-6.678h-2.012v-3.438h1.596v-.01h.05c.151 0 .301.003.45.01h.3v.018c5.155.39 9.233 4.77 9.233 10.098 0 2.27-.736 4.428-2.088 6.195h3.785v-.06c7.496-.658 13.376-6.947 13.376-14.614 0-7.014-4.922-12.874-11.5-14.324H25.266c-3.537 0-6.414 2.854-6.414 6.363 0 3.387 2.687 6.17 6.058 6.354h1.965v3.294l-1.61.01c-.146 0-.292-.003-.437-.01h-.297v-.017c-5.023-.374-8.996-4.551-8.996-9.631 0-5.113 4.024-9.31 9.093-9.637v-.02h16.736C39.106 3.708 33.929.072 27.9.072c-7.132 0-13.074 5.09-14.397 11.833" mask="url(#prefix__c)"/>
        <g fill="#000">
            <path d="M46.14 8.673c1.045 1.027 1.568 2.358 1.568 3.994v9.014h-3.195v-8.644c0-.893-.309-1.635-.927-2.225-.618-.59-1.402-.884-2.353-.884-.97 0-1.793.319-2.468.956s-1.012 1.412-1.012 2.324v8.473h-3.167V7.418h2.881L37.64 9.1c1.16-1.312 2.662-1.969 4.507-1.969 1.616 0 2.947.514 3.993 1.54M61.261 8.673c1.046 1.027 1.57 2.358 1.57 3.994v9.014h-3.196v-8.644c0-.893-.309-1.635-.927-2.225-.618-.59-1.402-.884-2.353-.884-.97 0-1.793.319-2.468.956s-1.012 1.412-1.012 2.324v8.473h-3.167V7.418h2.881l.172 1.683c1.16-1.312 2.662-1.969 4.507-1.969 1.616 0 2.947.514 3.993 1.54M84.743 17.844c.713-.884 1.07-1.982 1.07-3.295 0-1.312-.357-2.41-1.07-3.294-.713-.885-1.669-1.327-2.867-1.327s-2.153.437-2.867 1.312c-.713.875-1.07 1.978-1.07 3.31 0 1.33.357 2.433 1.07 3.308.714.875 1.669 1.313 2.867 1.313s2.154-.443 2.867-1.327m-7.944 1.997c-1.313-1.417-1.969-3.18-1.969-5.292 0-2.11.656-3.874 1.969-5.291 1.312-1.417 3.004-2.126 5.077-2.126s3.766.71 5.078 2.126c1.312 1.417 1.968 3.18 1.968 5.291 0 2.112-.656 3.875-1.968 5.292-1.312 1.417-3.005 2.125-5.078 2.125-2.073 0-3.765-.708-5.077-2.125" transform="translate(66 19)"/>
            <g>
                <path d="M7.163 2.625L10.016 2.625 10.016 0 7.163 0z" transform="translate(66 19) translate(64.83)"/>
                <path d="M5.563 4.793c0-.627.156-1.145.47-1.554.296-.386.673-.587 1.13-.61V.003c-1.32.006-2.443.452-3.37 1.34-.93.894-1.397 1.978-1.397 3.252v2.824H0v2.424h2.396v11.839h3.167V9.842h3.622V7.418H5.563V4.793z" transform="translate(66 19) translate(64.83)"/>
            </g>
            <g>
                <path d="M1.019 21.481L6.535 21.481 6.535 18.685 1.019 18.685z" transform="translate(66 19) translate(18.586 7.418)"/>
                <path d="M13.122 0H9.956v8.472c0 .913-.338 1.688-1.013 2.325-.675.637-1.488.956-2.44.956-.93 0-1.72-.319-2.367-.956-.646-.637-.97-1.412-.97-2.325V0H0v8.843c0 1.598.547 2.948 1.64 4.05 1.094 1.104 2.44 1.655 4.037 1.655 1.673 0 3.1-.618 4.279-1.854v1.57c0 1.426-.338 2.524-1.013 3.294-.585.667-1.388 1.044-2.408 1.133v2.792c1.948-.132 3.503-.793 4.662-1.985 1.302-1.341 1.954-3.086 1.954-5.235L13.122 0z" transform="translate(66 19) translate(18.586 7.418)"/>
            </g>
            <path stroke="#FFF" stroke-width=".545" d="M14.396.405H5.69c-.81 0-1.547.16-2.214.484-.67.324-1.237.755-1.703 1.292-.47.54-.836 1.167-1.1 1.88-.267.716-.4 1.452-.4 2.207 0 1.088.162 2.022.49 2.802.323.767.776 1.393 1.361 1.877.59.488 1.312.842 2.164 1.065.875.23 1.842.343 2.904.343h2.588c.882 0 1.617.26 2.208.77.6.518.91 1.234.91 2.155 0 .498-.1.924-.288 1.279-.19.355-.44.65-.746.887-.303.233-.67.41-1.102.526-.417.113-.85.17-1.301.17H.976v3.48h9.634c.852 0 1.623-.16 2.313-.485.69-.325 1.291-.767 1.8-1.326.509-.56.9-1.227 1.175-2.001.278-.782.416-1.625.416-2.53 0-.967-.149-1.857-.447-2.67-.296-.806-.714-1.5-1.254-2.082-.54-.58-1.18-1.032-1.923-1.358-.744-.325-1.544-.488-2.4-.488H6.36c-.704 0-1.256-.22-1.666-.642-.413-.424-.62-.94-.62-1.548 0-.524.09-.939.256-1.248.176-.328.429-.573.757-.738.3-.15.647-.255 1.041-.313.375-.055.782-.083 1.222-.083h7.046V.405z" transform="translate(66 19)"/>
        </g>
    </g>
</svg>
