<svg xmlns="http://www.w3.org/2000/svg" width="466" height="321" viewBox="0 0 466 321">
    <defs>
        <linearGradient id="prefix__a" x1="19.055%" x2="142.031%" y1="32.039%" y2="89.807%">
            <stop offset="0%" stop-color="#343434"/>
            <stop offset="100%"/>
        </linearGradient>
        <linearGradient id="prefix__b" x1="38.33%" x2="100%" y1="50%" y2="27.086%">
            <stop offset="0%" stop-color="#FD9714"/>
            <stop offset="100%" stop-color="#FD5714"/>
        </linearGradient>
        <linearGradient id="prefix__c" x1="-106.936%" x2="91.272%" y1="50.012%" y2="58.856%">
            <stop offset=".069%" stop-color="#D5D5D5"/>
            <stop offset="100%" stop-color="#343434"/>
        </linearGradient>
        <linearGradient id="prefix__d" x1="58.371%" x2="73.388%" y1="48.532%" y2="31.899%">
            <stop offset="0%" stop-color="#343434"/>
            <stop offset="100%"/>
        </linearGradient>
        <linearGradient id="prefix__e" x1="58.371%" x2="73.388%" y1="45.798%" y2="-1.811%">
            <stop offset="0%" stop-color="#343434"/>
            <stop offset="100%"/>
        </linearGradient>
        <linearGradient id="prefix__f" x1="-55.315%" x2="76.464%" y1="0%" y2="76.363%">
            <stop offset="0%" stop-color="#D5D5D5"/>
            <stop offset="100%"/>
        </linearGradient>
    </defs>
    <g fill="none" fill-rule="evenodd">
        <path fill="url(#prefix__a)" d="M433 73c-.92 0-1.792.192-2.688.272-7.717-22.08-30.226-35.383-53.29-31.495C353.957 45.664 337.053 65.61 337 89c0 .504.064.992.072 1.496-2.583-.965-5.315-1.47-8.072-1.496-13.255 0-24 10.745-24 24s10.745 24 24 24h104c17.673 0 32-14.327 32-32 0-17.673-14.327-32-32-32z"/>
        <g transform="translate(89)">
            <circle cx="144" cy="144" r="144" fill="url(#prefix__b)"/>
            <path fill="#FFF" fill-rule="nonzero" d="M223.94 256.4c-60.553-.023-114.622-37.925-135.294-94.84C67.974 104.645 85.116 40.878 131.54 2 71.098 10.65 22.692 56.497 10.776 116.38c-11.917 59.885 15.25 120.77 67.777 151.9 52.527 31.129 118.979 25.726 165.787-13.48-6.754 1.016-13.57 1.55-20.4 1.6z"/>
            <path fill="#FCBC04" fill-rule="nonzero" d="M215.94 256.4c-60.553-.023-114.622-37.925-135.294-94.84C59.974 104.645 77.116 40.878 123.54 2 63.098 10.65 14.692 56.497 2.776 116.38c-11.917 59.885 15.25 120.77 67.777 151.9 52.527 31.129 118.979 25.726 165.787-13.48-6.754 1.016-13.57 1.55-20.4 1.6z"/>
        </g>
        <path fill="url(#prefix__c)" d="M265 241c-5.923.039-11.763 1.406-17.088 4-12.228-17.096-34.192-24.194-54.112-17.488-12.214-23.563-37.717-37.128-64.082-34.087-26.366 3.042-48.11 22.058-54.638 47.783-.728-.04-1.376-.208-2.08-.208-19.61.026-36.294 14.296-39.36 33.664-9-3.538-19.246-1.328-25.987 5.606-6.742 6.934-8.663 17.237-4.873 26.135C6.57 315.303 15.329 321.056 25 321h240c22.091 0 40-17.909 40-40s-17.909-40-40-40z"/>
        <path fill="#FFF" fill-rule="nonzero" d="M259 243c-5.923.039-11.763 1.406-17.088 4-12.228-17.096-34.192-24.194-54.112-17.488-11.597-22.406-35.294-35.887-60.48-34.407-25.185 1.48-47.14 17.645-56.032 41.255 14.591-13.729 34.777-19.818 54.526-16.448 19.75 3.37 36.773 15.81 45.986 33.6 19.92-6.706 41.884.392 54.112 17.488 13.768-6.646 30.127-4.816 42.086 4.708 11.96 9.524 17.405 25.057 14.01 39.964 14.303-10.007 20.45-28.143 15.181-44.785C291.921 254.246 276.456 242.953 259 243z"/>
        <path fill="url(#prefix__d)" fill-rule="nonzero" stroke="#FFF" stroke-width="2" d="M265 241c-5.923.039-11.763 1.406-17.088 4-12.228-17.096-34.192-24.194-54.112-17.488-11.597-22.406-35.294-35.887-60.48-34.407-25.185 1.48-47.14 17.645-56.032 41.255 14.591-13.729 34.777-19.818 54.526-16.448 19.75 3.37 36.773 15.81 45.986 33.6 19.92-6.706 41.884.392 54.112 17.488 13.768-6.646 30.127-4.816 42.086 4.708 11.96 9.524 17.405 25.057 14.01 39.964 14.303-10.007 20.45-28.143 15.181-44.785C297.921 252.246 282.456 240.953 265 241h0z"/>
        <path fill="#FFF" fill-rule="nonzero" d="M429 74c-.92 0-1.792.192-2.688.272-4.888-14.133-16.092-25.176-30.294-29.86-14.202-4.684-29.777-2.472-42.114 5.98 18.517 1.88 34.271 14.309 40.408 31.88.896-.08 1.768-.272 2.688-.272 13.338-.048 25.296 8.213 29.971 20.705 4.676 12.491 1.08 26.573-9.011 35.295H429c17.673 0 32-14.327 32-32 0-17.673-14.327-32-32-32z"/>
        <path fill="url(#prefix__e)" fill-rule="nonzero" stroke="#FFF" stroke-width="2" d="M433 73c-.92 0-1.792.192-2.688.272-4.888-14.133-16.092-25.176-30.294-29.86-14.202-4.684-29.777-2.472-42.114 5.98 18.517 1.88 34.271 14.309 40.408 31.88.896-.08 1.768-.272 2.688-.272 13.338-.048 25.296 8.213 29.971 20.705 4.676 12.491 1.08 26.573-9.011 35.295H433c17.673 0 32-14.327 32-32 0-17.673-14.327-32-32-32h0z"/>
        <g fill="url(#prefix__f)" fill-rule="nonzero" transform="translate(5 37)">
            <path d="M384 252h-4v-4c0-4.418-3.582-8-8-8s-8 3.582-8 8v4h-4c-4.418 0-8 3.582-8 8s3.582 8 8 8h4v4c0 4.418 3.582 8 8 8s8-3.582 8-8v-4h4c4.418 0 8-3.582 8-8s-3.582-8-8-8zM48 12h-4V8c0-4.418-3.582-8-8-8s-8 3.582-8 8v4h-4c-4.418 0-8 3.582-8 8s3.582 8 8 8h4v4c0 4.418 3.582 8 8 8s8-3.582 8-8v-4h4c4.418 0 8-3.582 8-8s-3.582-8-8-8zM32 148h-4v-4c0-4.418-3.582-8-8-8s-8 3.582-8 8v4H8c-4.418 0-8 3.582-8 8s3.582 8 8 8h4v4c0 4.418 3.582 8 8 8s8-3.582 8-8v-4h4c4.418 0 8-3.582 8-8s-3.582-8-8-8z"/>
        </g>
    </g>
</svg>
