<svg xmlns="http://www.w3.org/2000/svg" width="92" height="91" viewBox="0 0 92 91">
    <g fill="none">
        <g>
            <path fill="#FE5814" d="M5.546 14.914H27.181V20.992H5.546zM5.546 4.755H27.181V10.833H5.546zM5.546 25.075H27.181V31.153H5.546z" transform="translate(54.674 2.372)"/>
            <path fill="#000" d="M30.832 30.529H1.896c-1.034 0-1.872.838-1.872 1.872v1.586c0 1.034.838 1.872 1.872 1.872h28.936c1.034 0 1.873-.838 1.873-1.872V32.4c0-1.034-.839-1.872-1.873-1.872zm.624 3.458c0 .344-.28.624-.624.624H1.896c-.345 0-.624-.28-.624-.624V32.4c0-.344.28-.624.624-.624h28.936c.345 0 .624.28.624.624v1.586zM30.832 10.208H1.896c-1.034 0-1.872.839-1.872 1.873v1.585c0 1.034.838 1.872 1.872 1.872h28.936c1.034 0 1.873-.838 1.873-1.872v-1.585c0-1.034-.839-1.873-1.873-1.873zm.624 3.458c0 .345-.28.624-.624.624H1.896c-.345 0-.624-.28-.624-.624v-1.585c0-.345.28-.624.624-.624h28.936c.345 0 .624.279.624.624v1.585zM30.832.049H1.896C.862.049.024.887.024 1.92v1.585c0 1.034.838 1.873 1.872 1.873h28.936c1.034 0 1.873-.839 1.873-1.873V1.921c0-1.034-.839-1.872-1.873-1.872zm.624 3.457c0 .345-.28.625-.624.625H1.896c-.345 0-.624-.28-.624-.625V1.921c0-.345.28-.624.624-.624h28.936c.345 0 .624.28.624.624v1.585zM30.832 20.368H1.896c-1.034 0-1.872.838-1.872 1.872v1.586c0 1.034.838 1.872 1.872 1.872h28.936c1.034 0 1.873-.838 1.873-1.872V22.24c0-1.034-.839-1.872-1.873-1.872zm.624 3.458c0 .344-.28.624-.624.624H1.896c-.345 0-.624-.28-.624-.624V22.24c0-.344.28-.624.624-.624h28.936c.345 0 .624.28.624.624v1.586z" transform="translate(54.674 2.372)"/>
        </g>
        <path fill="#000" d="M34.398 42.176H14.812c-3.583-.004-6.487-2.907-6.491-6.49v-1.058c.004-3.583 2.908-6.487 6.49-6.49h13.096c3.584.003 6.487 2.907 6.491 6.49v7.548zm-19.586-12.79c-2.896 0-5.243 2.347-5.243 5.242v1.057c0 2.896 2.347 5.243 5.243 5.243H33.15v-6.3c0-2.895-2.347-5.243-5.243-5.243H14.812z"/>
        <circle cx="21.36" cy="35.157" r="1.262" fill="#000"/>
        <circle cx="15.662" cy="35.157" r="1.262" fill="#000"/>
        <circle cx="27.059" cy="35.157" r="1.262" fill="#000"/>
        <g fill="#000" transform="translate(0 50.18)">
            <circle cx="15.009" cy="28.71" r="1.158"/>
            <circle cx="15.009" cy="33.938" r="1.158"/>
            <circle cx="15.009" cy="23.482" r="1.158"/>
            <path d="M91.914 13.615L84.258.348c-.112-.193-.318-.312-.54-.312H10.281c-.198.002-.383.097-.5.257L.126 13.56c-.138.189-.158.439-.053.648.105.208.318.341.552.343h8.638v23.366c0 1.034.838 1.873 1.873 1.873h26.3c.462 0 .907-.172 1.249-.48.342.308.787.48 1.248.48h42.48c1.034 0 1.872-.839 1.872-1.873V14.551h7.09c.222 0 .428-.119.54-.312.111-.193.111-.431 0-.624zM1.85 13.303l8.749-12.019h27.255l-8.75 12.019H1.85zM37.436 38.54H11.135c-.345 0-.625-.279-.625-.624V14.551h18.912c.197-.002.383-.097.499-.257L38.06 3.12v34.796c0 .345-.28.624-.624.624zm45.6-.624c0 .345-.28.624-.624.624h-42.48c-.345 0-.624-.279-.624-.624V2.897l6.548 11.342c.112.193.318.312.54.312h36.64v23.366zm-36.28-24.614L39.82 1.284h43.533l6.94 12.019H46.755z"/>
            <circle cx="79.077" cy="17.73" r="1.158" transform="rotate(-4.82 79.077 17.73)"/>
            <path d="M79.074 20.97c-.345 0-.624.28-.624.625V37.05c0 .344.28.624.624.624.345 0 .624-.28.624-.624V21.595c0-.345-.28-.624-.624-.624z"/>
        </g>
        <g>
            <path fill="#FE5814" d="M30.262 0H1.326C.636 0 .077.559.077 1.248v19.139c0 .69.56 1.248 1.249 1.248h28.936c.69 0 1.248-.559 1.248-1.248V1.248C31.51.558 30.951 0 30.262 0zm-9.883 14.73c-.107 0-.214-.009-.32-.024v3.026H8.989V6.663h3.357c-.012-.097-.019-.196-.018-.294.028-1.205 1.013-2.166 2.217-2.166 1.205 0 2.19.961 2.218 2.166 0 .098-.006.197-.019.294h3.317v3.655c.824-.124 1.649.224 2.134.901.486.678.55 1.57.168 2.311-.383.74-1.15 1.204-1.983 1.2z" transform="translate(7.864)"/>
            <path fill="#000" d="M20.684 18.357H8.364V6.039h3.356c.168-1.432 1.381-2.511 2.823-2.511s2.655 1.08 2.823 2.511h3.318v3.649c1.441.157 2.533 1.375 2.533 2.825 0 1.45-1.092 2.668-2.533 2.826v3.018zm-11.07-1.248h9.822V13.98l.715.104c.076.011.153.017.23.017.598.002 1.147-.331 1.422-.863.274-.532.228-1.173-.12-1.66-.349-.486-.94-.736-1.532-.648l-.714.105V7.287h-3.404l.093-.706c.01-.07.014-.141.014-.212.016-.58-.284-1.123-.783-1.418-.5-.295-1.12-.295-1.62 0s-.8.838-.784 1.418c0 .07.005.141.014.212l.094.705H9.61l.003 9.823z" transform="translate(7.864)"/>
        </g>
        <g fill="#000">
            <path d="M.071 26.045H1.97c2.177.003 3.942 1.767 3.944 3.945v10.579h1.249v-10.58c-.004-2.866-2.327-5.189-5.193-5.192H.069v.096l.002 1.152zM3.545 1.28h2.507c2.175 0 3.944 2.122 3.944 4.743v34.546h1.248V6.022C11.244 2.719 8.915.03 6.052.03H3.545c-.345 0-.624.28-.624.624 0 .345.28.624.624.624v.001zM15.168 40.569V20.193c.002-2.177 1.767-3.942 3.944-3.944h2.507c.344 0 .624-.28.624-.624 0-.345-.28-.625-.624-.625h-2.507c-2.866.004-5.19 2.327-5.193 5.193V40.57h1.249z" transform="translate(33.703 9.736)"/>
        </g>
    </g>
</svg>
