<svg xmlns="http://www.w3.org/2000/svg" width="75" height="90" viewBox="0 0 75 90">
    <g fill="none">
        <path fill="#000" d="M62.616 65.83l-8.099-13.667c-.237-.4-.624-.69-1.075-.806-.451-.116-.93-.047-1.33.19l-1.97 1.168c-1.463.87-2.056 2.688-1.387 4.253-.82.4-1.768.439-2.617.109l-2.077-.812c-.768-.303-1.611-.356-2.411-.152l-3.174.804c-.155.039-.307.087-.456.145l-.059-.035c-1.89-1.084-2.998-1.415-4.956-.658l-1.837.71c-.942.367-2 .28-2.87-.239l-.708-.418c.341-1.447-.297-2.948-1.575-3.706l-1.97-1.167c-.4-.238-.88-.306-1.33-.19-.451.115-.838.405-1.076.805L13.543 65.83c-.237.4-.306.88-.19 1.33.115.452.405.839.806 1.076l1.97 1.167c.521.31 1.117.474 1.723.474.73 0 1.44-.233 2.027-.666l.918.542-1.083 1.51c-.713.99-.72 2.324-.015 3.321.703.998 1.962 1.439 3.135 1.1.005.112.016.224.034.336.227 1.383 1.422 2.398 2.823 2.4.27-.001.539-.04.798-.114.067 1.529 1.324 2.735 2.854 2.738.158 0 .315-.013.47-.038.355-.059.696-.184 1.005-.37.307 1.287 1.455 2.195 2.777 2.197.158 0 .315-.013.47-.038.751-.121 1.422-.538 1.864-1.156l.044-.062 2.513 1.489c.683.4 1.497.512 2.263.309.736-.19 1.364-.67 1.74-1.331.278-.493.402-1.058.356-1.622l.46.272c.683.401 1.497.513 2.263.31.736-.19 1.364-.67 1.74-1.331.286-.505.41-1.084.358-1.661.597.243 1.257.287 1.88.123 1.327-.343 2.214-1.59 2.102-2.955.682.397 1.493.507 2.256.305.738-.189 1.369-.67 1.746-1.332.657-1.172.416-2.644-.58-3.546.053-.035.106-.07.16-.103l1.628-.952c.453.213.949.324 1.45.324.607 0 1.202-.164 1.724-.474l1.97-1.167c.4-.238.69-.624.806-1.076.115-.45.047-.93-.19-1.33l-.002.001zm-45.862 2.513l-1.97-1.167c-.12-.07-.206-.186-.24-.321-.035-.135-.014-.278.057-.398l8.098-13.666c.071-.12.187-.206.322-.24.135-.035.278-.015.397.057l1.97 1.167c.495.292.852.769.995 1.325.142.557.058 1.147-.235 1.64l-6.427 10.847c-.611 1.027-1.939 1.365-2.967.756zm4.334 5.91c-.73-.528-.896-1.547-.37-2.279l1.275-1.774c.532-.715 1.539-.871 2.263-.352.724.52.898 1.524.391 2.257l-1.28 1.779c-.527.732-1.547.9-2.28.374v-.005zm3.654 2.623c-.73-.528-.896-1.548-.37-2.28l1.275-1.774 1.406-1.957c.252-.353.635-.59 1.062-.659.09-.015.179-.022.269-.022.612.002 1.171.345 1.45.89.278.544.23 1.198-.127 1.695l-2.68 3.733c-.252.355-.635.594-1.064.665-.43.071-.87-.031-1.222-.285l.001-.006zm3.654 2.623c-.73-.528-.895-1.547-.37-2.279l2.681-3.733c.537-.701 1.533-.85 2.25-.334.718.515.896 1.506.403 2.239l-1.188 1.655-.9 1.257-.597.832c-.528.73-1.548.896-2.28.37l.001-.007zm5.462 2.08c-.652.108-1.304-.188-1.653-.75-.348-.561-.324-1.277.06-1.814l.893-1.242c.534-.71 1.538-.863 2.26-.345.72.518.896 1.518.394 2.25l-.892 1.242c-.252.353-.634.59-1.062.66zm20.712-8.034c-.214.373-.569.643-.985.749-.444.119-.918.055-1.315-.176l-2.013-1.193-.628 1.058c.766.457 1.027 1.44.589 2.217-.214.372-.57.642-.985.748-.446.12-.92.055-1.319-.178l-1.636-.97-.628 1.06c.765.456 1.026 1.44.589 2.216-.214.372-.57.642-.985.748-.446.12-.921.055-1.319-.178l-2.48-1.48-.629 1.059c.765.457 1.026 1.44.589 2.216-.214.372-.57.642-.985.748-.446.12-.92.055-1.319-.178l-2.422-1.438.124-.176c.624-.869.712-2.013.228-2.967-.484-.954-1.46-1.558-2.53-1.567.579-1.012.486-2.274-.235-3.19-.721-.916-1.926-1.304-3.046-.98-.005-.113-.016-.225-.034-.337-.188-1.143-1.046-2.06-2.174-2.324-1.128-.265-2.304.177-2.98 1.118l-.034.048c-.3-.847-.98-1.504-1.837-1.774s-1.79-.122-2.522.4l-.917-.542.047-.073 6.313-10.657.579.341c1.192.71 2.646.832 3.94.328l1.837-.71c1.286-.493 1.949-.47 3.365.282-.838.748-1.317 1.818-1.317 2.942v4.237c.001.94.762 1.701 1.7 1.703C39.02 66.68 40.6 65.417 41 63.64l8.43 4.992.971.575 3.593 2.128c.76.458 1.018 1.438.582 2.211h-.005zm.026-4.102c-.223.132-.434.282-.63.45l-1.555-.92-3.325-1.97-2.11-1.257-7.121-4.217v1.262c0 1.466-1.189 2.654-2.655 2.654-.26-.001-.469-.212-.469-.471v-4.236c.001-1.242.846-2.324 2.051-2.626l3.176-.804c.55-.14 1.13-.104 1.658.105l2.075.815c1.192.465 2.526.4 3.667-.18l6.02 10.16c.115.194.249.376.4.544l-1.182.69zm7.012-2.586c-.036.136-.125.252-.247.322l-1.97 1.167c-1.029.608-2.356.268-2.966-.76L50 56.74c-.293-.494-.377-1.084-.235-1.64.142-.556.5-1.033.994-1.326l1.97-1.167c.12-.07.263-.091.398-.056.135.034.25.121.321.241l8.099 13.666c.075.118.1.26.068.397l-.006.003z"/>
        <path fill="#000" d="M67.894 14.709c-.227-.504-.544-.963-.934-1.354L54.713 1.108c-.392-.39-.85-.706-1.354-.933-.226-.106-.493-.062-.674.11H11.786c-1.968 0-3.58 1.64-3.58 3.655v82.403C8.206 88.36 9.818 90 11.797 90h52.398c1.981 0 3.592-1.64 3.592-3.656V15.38c.17-.18.213-.446.108-.671h-.001zM53.724 1.871l.123.112 12.248 12.248c.039.039.076.08.112.123h-7.833c-2.567-.002-4.647-2.083-4.65-4.65V1.871zM64.19 88.77H11.8c-1.302 0-2.36-1.087-2.36-2.424V3.94c0-1.337 1.058-2.424 2.36-2.424h40.694v8.182c.003 3.247 2.635 5.878 5.881 5.881h8.182v70.766c0 1.337-1.057 2.424-2.36 2.424h-.007z"/>
        <circle cx="28.075" cy="34.187" r="1.146" fill="#000" transform="rotate(-4.574 28.075 34.187)"/>
        <path fill="#000" d="M47.155 34.572H31.917c-.34 0-.615-.276-.615-.616 0-.34.275-.615.615-.615h15.238c.34 0 .615.275.615.615 0 .34-.275.616-.615.616zM51.71 41.22H33.166c-.34 0-.616-.275-.616-.615 0-.34.276-.616.616-.616H51.71c.34 0 .616.276.616.616 0 .34-.276.615-.616.615z"/>
        <path fill="#000" d="M33.166 41.221h-.106c-.34 0-.616-.275-.616-.615 0-.34.276-.616.616-.616h.106c.34 0 .615.276.615.616 0 .34-.275.615-.615.615zm-3.8 0h-4.924c-.34 0-.616-.275-.616-.615 0-.34.276-.616.616-.616h4.924c.34 0 .616.276.616.616 0 .34-.276.615-.616.615zM43.092 47.377h-1.413c-.34 0-.615-.275-.615-.615 0-.34.275-.616.615-.616h1.413c.34 0 .615.276.615.616 0 .34-.275.615-.615.615zm-5.111 0h-4.925c-.34 0-.615-.275-.615-.615 0-.34.275-.616.615-.616h4.925c.34 0 .616.276.616.616 0 .34-.276.615-.616.615zM44.786 28.006c-.413 0-.798-.208-1.025-.553l-5.683-8.634-5.683 8.637c-.254.382-.7.591-1.156.543-.457-.049-.848-.348-1.016-.775l-.773-1.99-2.135.077c-.459.015-.888-.227-1.113-.627-.225-.4-.209-.892.042-1.277l6.572-9.987h10.522l6.572 9.985c.25.384.267.877.042 1.277-.225.4-.654.641-1.113.626l-2.135-.077-.773 1.99c-.184.474-.64.785-1.148.785h.003zM30.28 23.969l1.09 2.808 6.707-10.198 6.711 10.198 1.086-2.807 3.01.11-6.208-9.429H33.48l-6.208 9.431 3.01-.113z"/>
        <circle cx="38.017" cy="11.265" r="6.094" fill="#FE5814"/>
        <path fill="#000" d="M38.017 17.975c-3.706 0-6.71-3.004-6.71-6.71 0-3.705 3.004-6.71 6.71-6.71s6.71 3.005 6.71 6.71c-.004 3.705-3.006 6.706-6.71 6.71zm0-12.188c-3.026 0-5.48 2.453-5.48 5.478 0 3.026 2.454 5.48 5.48 5.48 3.026 0 5.478-2.454 5.478-5.48-.003-3.024-2.454-5.475-5.478-5.478z"/>
        <circle cx="72.801" cy="78.497" r="1.143" fill="#000" transform="rotate(-85.18 72.801 78.497)"/>
        <path fill="#000" d="M72.798 75.3c-.34 0-.616-.276-.616-.616V59.442c0-.34.276-.616.616-.616.34 0 .615.276.615.616v15.242c0 .34-.275.616-.615.616z"/>
        <circle cx="1.266" cy="13.06" r="1.143" fill="#000" transform="rotate(-4.82 1.266 13.06)"/>
        <path fill="#000" d="M1.266 32.726c-.34 0-.616-.275-.616-.615V16.867c0-.34.276-.615.616-.615.34 0 .615.275.615.615v15.244c0 .34-.275.615-.615.615z"/>
    </g>
</svg>
