<svg xmlns="http://www.w3.org/2000/svg" width="90" height="90" viewBox="0 0 90 90">
    <g fill="none">
        <path fill="#000" d="M71.535 67.446c5.019-5.238 8.45-11.79 9.897-18.899.032-.16 0-.327-.091-.463-.09-.136-.232-.23-.393-.262l-1.175-.231c.393-2.159.591-4.349.591-6.543-.013-14.024-8.132-26.777-20.834-32.723L51.282.177c-.157-.154-.383-.213-.595-.155-.212.058-.376.224-.432.437l-.714 2.738c-.984-.19-1.99-.298-2.121-.313-7.212-.776-14.497.508-21.009 3.702-.147.073-.259.2-.311.356-.053.155-.041.324.032.47l.945 1.897c-3.056 1.663-5.857 3.76-8.316 6.222-6.791 6.752-10.599 15.94-10.574 25.517 0 2.28.213 4.554.637 6.793v.011L7.212 59.426c-.03.217.058.434.231.57.174.134.406.166.609.084l2.618-1.064c.439.905.95 1.773 1.018 1.886 3.689 6.247 9.073 11.32 15.528 14.632.146.074.315.087.471.037.156-.051.284-.162.358-.308l2.213-4.392c.152-.301.033-.67-.268-.823-5.411-2.783-9.924-7.04-13.02-12.28-.2-.339-.401-.693-.6-1.06l2.513-1.011c.204-.083.348-.267.378-.485.03-.218-.057-.435-.23-.57l-8.99-7.008c-.412-2.17-.617-4.372-.616-6.58-.026-9.248 3.649-18.123 10.205-24.646 2.364-2.369 5.055-4.386 7.992-5.99l.701 1.405c.15.303.518.427.821.278 5.466-2.679 11.578-3.756 17.63-3.107.391.04.797.092 1.21.151l-.685 2.62c-.056.213.006.439.163.593.156.155.383.214.595.156l11.04-3.032c12.223 5.76 20.027 18.054 20.04 31.566 0 2.115-.192 4.225-.571 6.305l-2.446-.482c-.332-.065-.654.15-.722.481-1.22 5.96-4.101 11.453-8.31 15.845-.273.286-.56.575-.86.86l-1.657-2.143c-.134-.173-.35-.262-.568-.233-.218.03-.403.173-.487.376l-4.432 10.812c-.083.204-.052.436.083.61.134.173.351.262.569.232l11.575-1.556c.218-.03.403-.173.486-.375.083-.203.053-.435-.081-.609l-1.727-2.234c.758-.67 1.455-1.396 1.546-1.491zm-56.311-11.6c-.204.084-.349.27-.378.488-.03.218.06.436.235.57.274.52.555 1.02.834 1.493 3.108 5.26 7.597 9.57 12.978 12.462l-1.663 3.295c-6.009-3.21-11.02-8.01-14.485-13.875-.44-.743-.841-1.51-1.2-2.295-.135-.304-.487-.446-.794-.32l-2.174.88 1.32-9.467 7.537 5.876-2.21.894zm33.535-44.8l.602-2.305c.057-.214-.006-.442-.164-.597-.158-.155-.387-.213-.6-.152-.581-.091-1.15-.166-1.694-.224-6.073-.653-12.21.368-17.745 2.95L27.51 7.416c6.165-2.899 13.007-4.047 19.78-3.32.86.091 1.713.228 2.558.41.326.078.654-.12.738-.444l.592-2.27 6.8 6.716-9.22 2.539zM68.76 68.37c-.258.211-.3.59-.097.853l1.435 1.855-9.467 1.282 3.624-8.842 1.457 1.884c.135.175.354.264.572.233.219-.03.404-.176.486-.381.424-.402.83-.807 1.212-1.205 4.223-4.411 7.16-9.893 8.493-15.852l3.623.713c-1.471 6.651-4.741 12.77-9.454 17.689-.596.624-1.225 1.215-1.884 1.771z"/>
        <rect width="24.59" height="24.59" x="64.75" y="15.659" fill="#FE5814" rx="1.23"/>
        <path fill="#000" d="M86.512 33.671H73.305c-3.148 0-5.7-2.551-5.7-5.7 0-3.147 2.552-5.698 5.7-5.698h7.507c3.146.004 5.695 2.553 5.699 5.698v5.7zM73.305 23.502c-2.47 0-4.47 2.001-4.47 4.47s2 4.47 4.47 4.47H85.28v-4.47c-.003-2.467-2.002-4.466-4.47-4.469l-7.506-.001z"/>
        <ellipse cx="77.058" cy="27.973" fill="#000" rx="1" ry="1.003"/>
        <ellipse cx="72.529" cy="27.973" fill="#000" rx="1" ry="1.003"/>
        <ellipse cx="81.589" cy="27.973" fill="#000" rx="1" ry="1.003"/>
        <rect width="24.59" height="24.59" x="32.535" y="65.295" fill="#FE5814" rx="1.23"/>
        <path fill="#000" d="M41.353 83.418c-.154 0-.302-.058-.414-.164l-.04-.038-4.506-4.502c-.296-.296-.462-.697-.462-1.115 0-.419.166-.82.462-1.116l4.521-4.521.04-.038c.16-.15.39-.202.6-.137.21.064.369.236.418.45.049.214-.02.438-.181.588l-4.527 4.527c-.066.065-.103.154-.103.246-.001.092.035.18.1.246l4.504 4.504c.189.17.252.44.16.678-.093.238-.323.393-.578.391l.006.001zM48.301 83.42c-.252.001-.479-.153-.572-.388-.093-.235-.033-.502.152-.675l.01-.008 4.503-4.504c.066-.065.102-.154.101-.246 0-.092-.038-.18-.103-.246l-4.521-4.52c-.12-.112-.192-.266-.198-.43-.006-.164.054-.324.166-.444.23-.243.613-.257.86-.032l.037.036 4.521 4.521c.296.296.463.697.463 1.116 0 .418-.167.82-.463 1.116l-4.503 4.503-.037.036c-.113.105-.261.165-.416.166zM43.634 83.42c-.187.001-.365-.084-.482-.23-.116-.147-.16-.339-.118-.522l2.394-10.412c.076-.331.406-.538.737-.462.331.076.538.406.462.737l-2.394 10.413c-.064.279-.313.477-.599.477z"/>
        <rect width="24.59" height="24.59" y="15.72" fill="#FE5814" rx="1.23"/>
        <path fill="#000" d="M8.032 30.434c-.214 0-.414-.112-.525-.296-.111-.184-.119-.412-.02-.603l2.131-4.098c.097-.185.282-.309.49-.328.209-.019.412.07.54.235l1.67 2.144 1.055-2.347c.085-.187.256-.32.459-.353.202-.034.407.034.548.183l1.403 1.487 3.598-3.935c.141-.183.374-.271.601-.228.228.043.412.21.476.433s-.002.462-.171.62l-4.044 4.427c-.115.126-.278.198-.449.2-.171.001-.335-.069-.452-.193l-1.23-1.3-1.098 2.441c-.089.196-.274.332-.488.357-.214.025-.426-.064-.558-.234l-1.7-2.191-1.69 3.247c-.105.204-.316.332-.546.332z"/>
        <path fill="#000" d="M20.246 34.532H4.344c-.34 0-.615-.275-.615-.615V22.114c0-.34.275-.615.615-.615.34 0 .615.275.615.615v11.188h15.287c.34 0 .615.276.615.615 0 .34-.275.615-.615.615zM46.755 56.294h-4.952c-.7-.003-1.304-.49-1.455-1.173l-.416-1.91c-.4-.143-.793-.306-1.178-.492l-1.645 1.057c-.59.376-1.36.293-1.858-.199l-3.504-3.504c-.492-.497-.574-1.268-.199-1.858l1.057-1.645c-.182-.384-.345-.778-.491-1.178l-1.911-.415c-.68-.153-1.166-.755-1.17-1.452V38.57c.003-.7.49-1.303 1.172-1.455l1.911-.415c.143-.4.306-.793.492-1.178l-1.058-1.645c-.375-.59-.292-1.361.2-1.858l3.504-3.504c.497-.492 1.268-.575 1.857-.2l1.646 1.058c.384-.182.778-.346 1.177-.492l.416-1.91c.153-.68.756-1.165 1.453-1.169h4.955c.7.004 1.303.49 1.455 1.173l.415 1.911c.4.143.793.306 1.178.492l1.645-1.058c.59-.375 1.361-.292 1.858.2l3.504 3.504c.492.497.575 1.268.2 1.858l-1.058 1.645c.182.384.345.778.492 1.178l1.91.415c.683.152 1.17.755 1.173 1.455v4.95c-.003.699-.49 1.303-1.173 1.454l-1.923.417c-.142.4-.306.793-.491 1.178L57 48.219c.375.59.293 1.36-.2 1.858l-3.503 3.504c-.497.492-1.268.575-1.858.199l-1.645-1.057c-.385.182-.778.345-1.178.491l-.416 1.911c-.152.678-.75 1.162-1.445 1.17zm-8.08-4.984l.315.16c.534.271 1.088.5 1.658.687l.335.11.565 2.592c.026.12.131.204.253.205h4.955c.121-.001.227-.086.253-.205l.563-2.593.336-.109c.57-.186 1.123-.416 1.657-.687l.315-.16 2.233 1.436c.102.065.237.051.323-.035l3.504-3.504c.086-.087.1-.221.035-.324l-1.436-2.233.16-.315c.27-.534.5-1.088.687-1.657l.11-.336 2.592-.563c.119-.026.204-.131.204-.253V38.57c0-.122-.085-.227-.204-.253l-2.593-.563-.11-.336c-.185-.57-.415-1.124-.687-1.658l-.16-.314 1.437-2.234c.065-.103.05-.237-.035-.324l-3.503-3.504c-.087-.085-.221-.1-.324-.034l-2.233 1.436-.315-.16c-.534-.271-1.088-.501-1.657-.687l-.336-.11-.563-2.593c-.026-.119-.132-.203-.253-.204h-4.953c-.121 0-.227.085-.253.204l-.564 2.593-.336.11c-.57.186-1.123.416-1.657.687l-.315.16-2.235-1.436c-.103-.065-.237-.05-.324.034l-3.504 3.504c-.086.087-.1.222-.034.325l1.436 2.233-.16.314c-.271.534-.501 1.089-.687 1.658l-.11.334-2.593.563c-.118.027-.203.132-.204.254v4.955c0 .121.085.226.204.253l2.593.563.11.334c.186.57.416 1.124.687 1.658l.16.315-1.435 2.236c-.065.103-.051.237.034.323l3.504 3.504c.087.086.222.1.325.035l2.23-1.436zm5.602-4.4c-2.37 0-4.508-1.429-5.415-3.619-.907-2.19-.406-4.71 1.27-6.387 1.677-1.676 4.198-2.178 6.388-1.27 2.19.907 3.618 3.044 3.618 5.414-.003 3.235-2.625 5.857-5.86 5.861h-.001zm0-10.493c-2.558 0-4.632 2.073-4.632 4.631 0 2.558 2.074 4.632 4.632 4.632s4.632-2.074 4.632-4.632c-.003-2.556-2.074-4.628-4.63-4.631h-.002z"/>
    </g>
</svg>
