<svg xmlns="http://www.w3.org/2000/svg" width="105" height="90" viewBox="0 0 105 90">
    <g fill="none">
        <path fill="#000" d="M15.232 63.72h56.515c.39 0 .707-.316.707-.706 0-.39-.317-.706-.707-.706H15.232c-.39 0-.706.316-.706.706 0 .39.316.707.706.707z"/>
        <path fill="#000" d="M99.684 0H4.727C2.117.003.003 2.118 0 4.727v63.939c0 .533.086 1.062.256 1.568.575 2.037 2.431 3.444 4.548 3.449h34.05c.104-.001.206-.025.3-.07h3.638c.093.045.195.069.3.07h.252l-6.382 8.477H24.906c-1.17 0-2.12.949-2.12 2.12v3.474c0 1.17.95 2.119 2.12 2.119h54.6c1.17 0 2.118-.949 2.118-2.12v-3.47c0-1.17-.948-2.119-2.119-2.119H67.451l-6.382-8.477h38.539c2.117-.003 3.975-1.411 4.55-3.449.17-.507.255-1.038.253-1.572V4.727c-.003-2.61-2.118-4.724-4.727-4.727zM68.513 83.577h10.99c.39 0 .707.316.707.707v3.47c0 .39-.316.706-.706.706H24.906c-.39 0-.706-.316-.706-.706v-3.47c0-.39.316-.707.706-.707h10.99l-.051.07h32.72l-.052-.07zm-2.826-1.413H38.73l6.382-8.477H59.3l6.387 8.477zm37.311-19.856H75.986c-.39 0-.707.316-.707.706 0 .39.317.707.707.707h26.935v5.227c0 .29-.038.58-.113.86-.488 1.429-1.831 2.39-3.342 2.39H4.946c-1.51 0-2.852-.96-3.341-2.388-.075-.28-.113-.569-.113-.859v-5.23h9.502c.39 0 .706-.317.706-.707 0-.39-.316-.706-.706-.706H1.413V11.485h101.585v50.823zM1.413 4.728c.002-1.83 1.485-3.313 3.314-3.315h94.957c1.83.002 3.312 1.485 3.314 3.314v5.228H1.413V4.727z"/>
        <ellipse cx="7.494" cy="5.688" fill="#000" rx="1.311" ry="1.305"/>
        <ellipse cx="12.351" cy="5.688" fill="#000" rx="1.311" ry="1.305"/>
        <ellipse cx="17.207" cy="5.688" fill="#000" rx="1.311" ry="1.305"/>
        <path fill="#000" d="M94.874 21.454H56.868c-.39 0-.706-.316-.706-.706 0-.39.316-.706.706-.706h38.006c.39 0 .707.316.707.706 0 .39-.316.706-.707.706zM54.537 21.456h-5.652c-.39 0-.706-.316-.706-.707 0-.39.316-.706.706-.706h5.652c.39 0 .706.316.706.706 0 .39-.316.707-.706.707zm-9.89 0h-5.652c-.39 0-.706-.316-.706-.707 0-.39.316-.706.706-.706h5.652c.39 0 .706.316.706.706 0 .39-.316.707-.706.707zM94.874 28.519H63.51c-.39 0-.707-.316-.707-.707 0-.39.316-.706.707-.706h31.365c.39 0 .707.316.707.706 0 .39-.316.707-.707.707zM59.553 28.52h-.777c-.39 0-.707-.316-.707-.706 0-.39.316-.707.707-.707h.78c.391 0 .707.317.707.707 0 .39-.316.706-.706.706h-.004zm-5.02 0h-5.648c-.39 0-.706-.316-.706-.706 0-.39.316-.707.706-.707h5.652c.39 0 .706.317.706.707 0 .39-.316.706-.706.706h-.004zm-9.89 0h-5.648c-.39 0-.706-.316-.706-.706 0-.39.316-.707.706-.707h5.652c.39 0 .706.317.706.707 0 .39-.316.706-.706.706h-.004zM45.353 42.508h-5.651c-.39 0-.707-.317-.707-.707 0-.39.317-.706.707-.706h5.651c.39 0 .707.316.707.706 0 .39-.317.707-.707.707zm-9.89 0h-5.651c-.39 0-.707-.317-.707-.707 0-.39.316-.706.707-.706h5.651c.39 0 .707.316.707.706 0 .39-.317.707-.707.707zm-9.89 0h-5.651c-.39 0-.707-.317-.707-.707 0-.39.316-.706.707-.706h5.651c.39 0 .706.316.706.706 0 .39-.316.707-.706.707zm-9.89 0H10.03c-.39 0-.706-.317-.706-.707 0-.39.316-.706.706-.706h5.652c.39 0 .706.316.706.706 0 .39-.316.707-.706.707zM47.967 49.078H10.031c-.39 0-.706-.317-.706-.707 0-.39.316-.706.706-.706h37.936c.39 0 .706.316.706.706 0 .39-.316.707-.706.707zM50.369 55.647h-2.19c-.39 0-.706-.316-.706-.706 0-.39.316-.706.706-.706h2.19c.39 0 .706.316.706.706 0 .39-.316.706-.706.706zm-6.433 0h-8.473c-.39 0-.706-.316-.706-.706 0-.39.316-.706.706-.706h8.477c.39 0 .707.316.707.706 0 .39-.317.706-.707.706h-.004zm-12.716 0h-8.473c-.39 0-.706-.316-.706-.706 0-.39.316-.706.706-.706h8.477c.39 0 .707.316.707.706 0 .39-.316.706-.707.706h-.004zm-12.716 0h-8.473c-.39 0-.706-.316-.706-.706 0-.39.316-.706.706-.706h8.478c.39 0 .706.316.706.706 0 .39-.316.706-.706.706h-.005z"/>
        <path d="M15.754 30.942l-.027-.027-5.317-5.31c-.215-.212-.336-.501-.336-.803 0-.303.121-.592.336-.804l5.336-5.337.027-.025"/>
        <path fill="#000" d="M15.754 31.648c-.18 0-.353-.069-.484-.192l-.04-.04-5.32-5.312c-.719-.72-.719-1.886 0-2.607l5.336-5.336.043-.04c.182-.182.449-.249.695-.177.247.072.434.273.49.523.057.25-.027.512-.219.683l-.013.013-5.329 5.333c-.168.169-.168.441 0 .61l5.328 5.327c.207.2.272.505.165.772-.107.267-.365.442-.652.443z"/>
        <path d="M23.947 30.942l.027-.027 5.316-5.317c.215-.212.336-.501.336-.803 0-.303-.12-.592-.336-.804l-5.336-5.337-.027-.025"/>
        <path fill="#000" d="M23.947 31.648c-.29 0-.55-.176-.657-.445-.107-.27-.039-.577.172-.775l.014-.013 5.316-5.315c.167-.169.167-.441 0-.61l-5.345-5.344c-.185-.172-.264-.43-.207-.676.056-.246.24-.443.481-.517.242-.074.504-.014.69.159l.042.04 5.339 5.34c.719.72.719 1.886 0 2.607l-5.317 5.316-.042.041c-.132.124-.306.193-.486.192zM18.438 31.655c-.215 0-.42-.097-.553-.266-.135-.168-.185-.388-.136-.598l2.825-12.292c.057-.246.24-.444.482-.518.241-.074.504-.013.688.159.185.172.264.43.208.675l-2.826 12.292c-.074.32-.359.548-.688.548z"/>
        <path fill="#FE5814" d="M69.362 56.166H93.85V63.044999999999995H69.362zM69.362 67.667H93.85V74.546H69.362zM69.362 44.667H93.85V51.546H69.362z"/>
        <path fill="#000" d="M97.983 56.872H65.23c-1.17 0-2.12-.948-2.12-2.119V52.96c0-1.17.95-2.12 2.12-2.12h32.752c1.17 0 2.119.95 2.119 2.12v1.794c0 1.17-.949 2.12-2.12 2.12zm-32.752-4.62c-.39 0-.707.317-.707.707v1.794c0 .39.317.706.707.706h32.752c.39 0 .706-.316.706-.706V52.96c0-.39-.316-.707-.706-.707H65.23zM97.983 45.373H65.23c-1.17 0-2.12-.949-2.12-2.12V41.46c0-1.17.95-2.119 2.12-2.119h32.752c1.17 0 2.119.949 2.119 2.12v1.794c0 1.17-.949 2.119-2.12 2.119zm-32.752-4.62c-.39 0-.707.316-.707.706v1.795c0 .39.317.706.707.706h32.752c.39 0 .706-.316.706-.706v-1.795c0-.39-.316-.706-.706-.706H65.23zM97.983 68.373H65.23c-1.17 0-2.12-.949-2.12-2.12V64.46c0-1.17.95-2.119 2.12-2.119h32.752c1.17 0 2.119.949 2.119 2.12v1.794c0 1.17-.949 2.12-2.12 2.12zm-32.752-4.62c-.39 0-.707.316-.707.706v1.795c0 .39.317.706.707.706h32.752c.39 0 .706-.316.706-.706v-1.795c0-.39-.316-.706-.706-.706H65.23zM97.983 79.873H65.23c-1.17 0-2.12-.95-2.12-2.12V75.96c0-1.17.95-2.12 2.12-2.12h32.752c1.17 0 2.119.95 2.119 2.12v1.794c0 1.17-.949 2.12-2.12 2.12zm-32.752-4.62c-.39 0-.707.316-.707.706v1.794c0 .39.317.707.707.707h32.752c.39 0 .706-.317.706-.707V75.96c0-.39-.316-.707-.706-.707H65.23z"/>
    </g>
</svg>
