<svg xmlns="http://www.w3.org/2000/svg" width="74" height="90" viewBox="0 0 74 90">
    <g fill="none">
        <circle cx="26.876" cy="27.017" r="1.137" fill="#000" transform="rotate(-4.574 26.876 27.017)"/>
        <path fill="#000" d="M45.783 27.426h-15.12c-.337 0-.61-.273-.61-.61 0-.338.273-.611.61-.611h15.12c.337 0 .61.273.61.61 0 .338-.273.611-.61.611z"/>
        <circle cx="26.847" cy="34.431" r="1.137" fill="#000" transform="rotate(-4.574 26.847 34.431)"/>
        <path fill="#000" d="M45.783 34.814h-15.12c-.337 0-.61-.273-.61-.61 0-.338.273-.61.61-.61h15.12c.337 0 .61.272.61.61 0 .337-.273.61-.61.61z"/>
        <circle cx="26.818" cy="41.845" r="1.137" fill="#000" transform="rotate(-4.574 26.818 41.845)"/>
        <path fill="#000" d="M45.783 42.202h-15.12c-.337 0-.61-.273-.61-.61 0-.337.273-.61.61-.61h15.12c.337 0 .61.273.61.61 0 .337-.273.61-.61.61z"/>
        <g>
            <path fill="#000" d="M56.277 60.527h.42v-7.449c-.136.081-.276.155-.42.221v7.228zM50.37 53.138c-.191-.106-.377-.221-.557-.346v7.735h.558v-7.39z" transform="translate(8.426)"/>
            <path fill="#000" d="M55.476 69.582v7.132c0 2.023-1.64 3.663-3.663 3.663H4.947c-2.023 0-3.664-1.64-3.664-3.663v-65.75c0-2.024 1.64-3.664 3.664-3.664h9.695v2.442H8.587c-1.579.002-2.858 1.281-2.86 2.86V73.56c.002 1.578 1.281 2.857 2.859 2.86h39.588c1.578-.003 2.857-1.282 2.859-2.86v-3.977H49.81v3.977c0 .904-.733 1.637-1.637 1.638H8.587c-.904-.001-1.636-.734-1.637-1.638V12.602c.001-.903.733-1.636 1.637-1.637h6.055v4.518h27.476v-4.518h6.056c.904.001 1.636.734 1.637 1.637v29.553c.382-.265.792-.487 1.222-.663v-28.89c-.002-1.578-1.281-2.856-2.86-2.858h-6.055V7.3h9.695c2.023 0 3.663 1.64 3.663 3.664v30.354c.425.138.834.32 1.222.543V10.966c0-2.698-2.187-4.885-4.885-4.885H42.1c-.122-.908-.897-1.586-1.814-1.587h-3.175V1.832C37.111.82 36.291 0 35.28 0h-13.8C20.47 0 19.65.82 19.65 1.832v2.66h-3.175c-.917 0-1.692.679-1.814 1.587H4.947c-2.698 0-4.885 2.187-4.885 4.885v65.75c0 2.697 2.187 4.884 4.885 4.884h46.866c2.698 0 4.885-2.187 4.885-4.884v-7.132h-1.222zM20.87 4.492v-2.66c0-.337.273-.61.61-.61h13.8c.337 0 .61.273.61.61v4.814c0 .337-.273.61-.61.61h-13.8c-.337 0-.61-.273-.61-.61V4.49zm-5.007 1.831c0-.337.273-.61.61-.61h3.176v.933c0 1.011.82 1.831 1.831 1.831h13.8c1.011 0 1.831-.82 1.831-1.831v-.933h3.175c.338 0 .61.273.61.61v7.938H15.864V6.323z" transform="translate(8.426)"/>
            <path fill="#000" d="M61.913 70.193H44.74c-1.458-.002-2.64-1.184-2.642-2.642v-3.739c.001-.765.621-1.385 1.386-1.386h3.41c.072-1.405 1.232-2.508 2.639-2.51h.232v-6.429c-2.718-1.682-3.97-4.978-3.056-8.04.915-3.064 3.77-5.133 6.965-5.049 3.196.084 5.938 2.3 6.691 5.406.753 3.107-.67 6.332-3.472 7.87v6.241h.232c1.407.002 2.567 1.105 2.639 2.51h3.407c.765 0 1.385.62 1.386 1.386v3.74c-.002 1.458-1.184 2.64-2.643 2.642zm-18.43-6.546c-.092 0-.166.074-.166.165v3.74c.002.783.637 1.418 1.42 1.42h17.176c.784-.002 1.419-.637 1.42-1.42v-3.74c0-.091-.073-.165-.164-.165H58.54V62.56c-.001-.784-.636-1.419-1.42-1.42h-1.453v-8.22l.347-.166c2.442-1.168 3.766-3.857 3.204-6.505-.562-2.648-2.864-4.567-5.57-4.642-2.706-.075-5.112 1.712-5.82 4.325-.71 2.613.464 5.371 2.837 6.673l.316.175v8.36h-1.453c-.784.001-1.419.636-1.42 1.42v1.088h-4.626z" transform="translate(8.426)"/>
            <path fill="#FFF" d="M47.496 63.037L59.151 63.037" transform="translate(8.426)"/>
            <path fill="#000" d="M47.496 62.426H59.151V63.647000000000006H47.496z" transform="translate(8.426)"/>
        </g>
        <rect width="25.254" height="25.156" y="56.757" fill="#FE5814" rx="2.444"/>
        <path fill="#FFF" d="M23.522 69.931c0-.934-.944-1.732-1.173-2.592-.245-.893.172-2.054-.28-2.835-.452-.78-1.674-1.013-2.32-1.655-.646-.643-.865-1.859-1.656-2.32-.792-.462-1.943-.042-2.835-.28-.862-.231-1.66-1.175-2.593-1.175-.934 0-1.733.944-2.595 1.173-.893.245-2.054-.172-2.835.28-.78.452-1.013 1.674-1.655 2.32-.643.646-1.86.865-2.32 1.656-.462.792-.042 1.943-.28 2.835-.231.862-1.175 1.66-1.175 2.593 0 .935.944 1.733 1.175 2.594.244.893-.173 2.054.28 2.834.451.78 1.674 1.014 2.32 1.656.646.643.864 1.859 1.655 2.32.792.462 1.943.042 2.835.28.862.231 1.66 1.175 2.594 1.175.934 0 1.732-.944 2.593-1.175.893-.244 2.054.172 2.835-.28.78-.451 1.013-1.674 1.655-2.32.643-.646 1.86-.864 2.32-1.656.462-.79.042-1.942.28-2.834.231-.86 1.175-1.66 1.175-2.594zm-10.854 7.752c-4.28 0-7.752-3.47-7.752-7.752 0-4.281 3.471-7.752 7.752-7.752 4.282 0 7.752 3.471 7.752 7.752-.004 4.28-3.472 7.748-7.752 7.752z"/>
        <path fill="#000" d="M12.667 81.397c-.718 0-1.319-.384-1.849-.72-.323-.207-.63-.401-.902-.474-.293-.079-.668-.064-1.064-.048-.618.024-1.319.054-1.918-.293-.6-.347-.934-.977-1.221-1.53-.181-.348-.353-.676-.56-.884-.208-.21-.537-.38-.885-.56-.552-.29-1.177-.611-1.529-1.222-.352-.61-.319-1.297-.297-1.916.016-.397.03-.773-.047-1.066-.074-.274-.268-.579-.474-.903-.338-.53-.72-1.132-.72-1.848 0-.717.383-1.32.72-1.85.206-.323.4-.63.474-.902.078-.293.063-.668.047-1.063-.025-.618-.053-1.32.293-1.919.347-.6.977-.934 1.53-1.221.349-.18.676-.353.885-.56.208-.208.38-.537.56-.885.288-.552.61-1.177 1.221-1.529.61-.351 1.298-.317 1.916-.293.397.016.773.032 1.066-.047.275-.073.58-.268.905-.474.53-.337 1.131-.72 1.848-.72.717 0 1.319.384 1.849.721.323.207.63.4.902.474.293.078.667.063 1.064.048.618-.026 1.319-.054 1.918.293.6.347.935.977 1.221 1.53.181.348.353.675.561.884.208.209.536.38.884.56.552.289 1.177.611 1.529 1.222.352.61.318 1.298.293 1.916-.016.397-.03.771.048 1.066.073.273.267.579.474.902.338.53.72 1.131.72 1.849s-.383 1.319-.72 1.849c-.207.323-.401.63-.474.902-.078.293-.064.668-.048 1.064.026.618.054 1.319-.293 1.918-.347.6-.977.935-1.53 1.222-.348.18-.675.352-.884.56-.209.208-.38.536-.56.884-.289.552-.611 1.177-1.222 1.53-.61.35-1.298.317-1.916.292-.397-.016-.773-.032-1.066.048-.274.073-.579.267-.902.474-.528.335-1.129.719-1.847.719zM9.321 78.92c.307-.006.612.028.91.102.455.122.855.377 1.243.624.427.272.832.53 1.193.53.362 0 .766-.258 1.193-.53.387-.245.788-.502 1.243-.624.474-.122.96-.108 1.432-.088.495.02.963.039 1.255-.13.292-.168.518-.592.75-1.036.216-.414.44-.843.78-1.184.34-.34.768-.563 1.182-.779.445-.232.865-.45 1.038-.75.174-.301.15-.762.13-1.257-.019-.47-.038-.957.089-1.43.127-.472.377-.854.624-1.242.272-.428.53-.832.53-1.193 0-.362-.258-.766-.529-1.194-.244-.387-.502-.787-.623-1.243-.122-.472-.107-.96-.088-1.43.02-.497.04-.964-.13-1.256-.168-.292-.591-.518-1.036-.75-.414-.216-.843-.44-1.183-.78-.341-.341-.563-.768-.78-1.182-.231-.445-.45-.865-.75-1.038-.3-.174-.761-.15-1.257-.131-.47.02-.956.039-1.429-.088-.472-.127-.855-.377-1.243-.624-.427-.272-.831-.53-1.193-.53-.361 0-.766.256-1.193.529-.388.244-.789.502-1.246.624-.456.122-.96.107-1.43.088-.497-.02-.964-.04-1.256.13-.292.168-.518.591-.75 1.036-.216.414-.44.842-.78 1.183-.341.34-.768.563-1.182.78-.445.231-.865.45-1.038.75-.174.3-.152.764-.133 1.258.019.47.039.956-.088 1.429-.127.472-.378.855-.624 1.243-.273.427-.53.832-.53 1.193 0 .362.257.766.53 1.193.244.387.501.788.624 1.243.122.474.107.961.088 1.432-.02.495-.04.963.129 1.255.168.292.592.518 1.037.75.414.216.842.44 1.183.78.34.34.563.768.78 1.182.231.445.45.865.75 1.038.3.174.76.15 1.257.13.173-.005.348-.013.521-.013zm3.347-.626c-4.618 0-8.362-3.744-8.362-8.363 0-4.618 3.744-8.362 8.362-8.362 4.619 0 8.363 3.744 8.363 8.362-.005 4.617-3.746 8.358-8.363 8.363zm0-15.509c-2.888 0-5.492 1.74-6.597 4.409-1.106 2.668-.495 5.74 1.548 7.782 2.042 2.043 5.114 2.654 7.782 1.548 2.669-1.105 4.409-3.71 4.409-6.598-.008-3.94-3.202-7.13-7.142-7.135v-.006z"/>
        <path fill="#000" d="M15.167 74.76c-.208 0-.41-.066-.579-.188l-1.92-1.395-1.922 1.394c-.345.25-.81.25-1.155 0-.345-.251-.49-.694-.359-1.1l.733-2.255-1.915-1.397c-.345-.25-.49-.695-.357-1.1.131-.406.51-.68.936-.68h2.37l.733-2.256c.132-.405.51-.68.936-.68.426 0 .804.275.936.68l.732 2.256h2.372c.426 0 .804.274.936.68.132.405-.012.85-.357 1.1l-1.919 1.395.733 2.255c.097.3.045.628-.14.883s-.48.406-.795.407zm-2.497-3.093l2.046 1.487-.781-2.407 2.048-1.489H13.45l-.781-2.406-.782 2.406h-2.53l2.046 1.488-.78 2.402 2.046-1.481zM15.476 77.808L15.064 76.659 15.135 76.633 15.559 77.779zM15.295 77.87L14.909 76.711 14.976 76.689 15.373 77.845zM15.903 77.642L15.429 76.516 15.522 76.476 15.777 77.03 16.022 77.589zM15.65 77.744l-.437-1.14.19-.076.47 1.127c-.074.03-.147.06-.22.088l-.004.001zM16.077 77.567L15.577 76.452 15.677 76.406 16.194 77.512zM16.242 77.489L15.718 76.39 15.819 76.341 16.361 77.44zM16.723 77.244l-.594-1.068c.395-.22.768-.476 1.115-.767l1.003-.838v1.587l-.219.183c-.406.342-.843.644-1.305.903zM16.571 77.326L15.997 76.246 16.108 76.186 16.699 77.255zM16.411 77.407L15.864 76.316 15.969 76.262 16.536 77.344zM13.303 78.269L13.213 77.052 13.258 77.661 13.215 77.052 13.273 77.66 13.318 78.268zM13.719 78.228L13.565 77.017 13.579 77.014 13.738 78.226 13.653 77.621zM13.506 78.251L13.393 77.036 13.408 77.035 13.532 78.249zM18.226 89.962l-5.564-3.655-5.58 3.64.023-11.182.732.148c.32.045.645.054.968.027.47-.02.956-.04 1.428.088.473.127.855.377 1.244.624.427.272.831.53 1.193.53.361 0 .765-.258 1.193-.53.387-.244.787-.502 1.243-.624.474-.122.96-.108 1.431-.088.326.028.653.018.977-.028l.733-.152-.021 11.202zm-5.562-5.115l4.343 2.854.011-7.534c-.174 0-.356-.006-.532-.013-.397-.016-.772-.03-1.066.047-.274.074-.58.268-.903.474-.53.338-1.132.72-1.849.72-.716 0-1.318-.383-1.848-.72-.324-.206-.63-.4-.903-.474-.293-.078-.667-.063-1.064-.047-.173.007-.351.018-.527.013l-.011 7.52 4.349-2.84zM14.924 77.984L14.595 76.808 14.653 76.792 14.993 77.964zM15.111 77.929L14.753 76.761 14.818 76.742 15.185 77.907zM13.946 78.196L13.745 76.991 13.756 76.99zM14.738 78.034L14.434 76.852 14.483 76.838 14.794 78.019zM14.549 78.08L14.272 76.891 14.304 76.883 14.581 78.073z"/>
    </g>
</svg>
