<svg xmlns="http://www.w3.org/2000/svg" width="88" height="91" viewBox="0 0 88 91">
    <g fill="none">
        <path fill="#000" d="M18.023 37.05H5.688V24.715h3.36c.169-1.434 1.384-2.515 2.828-2.515 1.443 0 2.658 1.081 2.827 2.515h3.32v3.652c1.443.158 2.536 1.378 2.536 2.83 0 1.452-1.093 2.671-2.537 2.83v3.023zM6.938 35.8h9.835v-3.125l.716.105c.076.011.153.016.23.016.599.002 1.149-.331 1.424-.864.275-.532.228-1.174-.12-1.661-.35-.487-.942-.738-1.534-.65l-.715.105v-3.761h-3.41l.093-.707c.01-.071.014-.142.014-.213.017-.58-.284-1.124-.784-1.42-.5-.295-1.122-.295-1.622 0-.5.296-.801.84-.785 1.42 0 .071.005.142.014.212l.092.707H6.938V35.8z"/>
        <path fill="#000" d="M85.25 17.25h-11.5v-4.625c0-2.761-2.239-5-5-5H17.5c-2.761 0-5 2.239-5 5V16.5H1.875C.839 16.5 0 17.34 0 18.375v22.5c0 1.036.84 1.875 1.875 1.875h22.5c1.036 0 1.875-.84 1.875-1.875v-22.5c0-1.036-.84-1.875-1.875-1.875H13.75v-3.875c0-2.071 1.679-3.75 3.75-3.75h51.25c2.071 0 3.75 1.679 3.75 3.75v4.625h-9.75c-1.036 0-1.875.84-1.875 1.875v22.5c0 1.036.84 1.875 1.875 1.875h22.5c1.036 0 1.875-.84 1.875-1.875v-22.5c0-1.036-.84-1.875-1.875-1.875zM25 18.375v22.5c0 .345-.28.625-.625.625h-22.5c-.345 0-.625-.28-.625-.625v-22.5c0-.345.28-.625.625-.625h22.5c.345 0 .625.28.625.625zm60.875 23.25c0 .345-.28.625-.625.625h-22.5c-.345 0-.625-.28-.625-.625v-22.5c0-.345.28-.625.625-.625h22.5c.345 0 .625.28.625.625v22.5z"/>
        <path fill="#000" d="M78.897 29.119v-3.654h-3.32c-.168-1.434-1.383-2.515-2.826-2.515-1.444 0-2.66 1.081-2.827 2.515h-3.362V37.8h12.335v-3.022c1.444-.158 2.537-1.378 2.537-2.83 0-1.452-1.093-2.671-2.537-2.83zm-.305 4.425c-.076 0-.152-.006-.228-.016l-.717-.105v3.124h-9.835v-9.832h3.45l-.093-.707c-.083-.617.199-1.225.722-1.56.524-.334 1.195-.334 1.719 0 .524.335.806.943.722 1.56l-.093.707h3.408v3.758l.715-.105c.593-.089 1.185.162 1.534.65.349.487.395 1.128.12 1.66-.274.533-.824.867-1.424.864v.002z"/>
        <path fill="#FE5814" d="M54.75 0h-22.5C31.56 0 31 .56 31 1.25v22.5c0 .69.56 1.25 1.25 1.25h22.5c.69 0 1.25-.56 1.25-1.25V1.25c0-.332-.132-.65-.366-.884C55.399.132 55.082 0 54.75 0zm-7.108 16.765c-.111.006-.223.006-.335 0h-8.42c-1.25 0-2.263-1.014-2.263-2.264 0-1.25 1.013-2.263 2.264-2.263h.16c-.266-1.928 1.08-3.706 3.007-3.973 1.927-.267 3.706 1.08 3.973 3.006 1.052-.573 2.347-.449 3.27.315.924.763 1.29 2.012.926 3.153-.365 1.142-1.388 1.946-2.583 2.032l.002-.006z"/>
        <path fill="#000" d="M47.475 17.395h-8.587c-1.501.003-2.754-1.143-2.885-2.638-.13-1.495.906-2.84 2.385-3.097.048-2.016 1.54-3.706 3.534-4.004 1.995-.298 3.915.882 4.55 2.797 1.307-.378 2.714.024 3.622 1.036.909 1.011 1.158 2.454.642 3.712-.515 1.258-1.705 2.11-3.062 2.193-.064-.002-.132.001-.199.001zm-8.587-4.532c-.906 0-1.64.733-1.64 1.638 0 .905.734 1.639 1.64 1.639h8.455c.648.039 1.283-.201 1.743-.66.46-.46.702-1.094.664-1.742-.074-1.254-1.149-2.212-2.403-2.14h-.037c-.347-.002-.69.077-1 .232l-.776.383-.125-.858c-.134-1.032-.812-1.913-1.775-2.308-.964-.395-2.065-.242-2.884.4-.82.641-1.233 1.673-1.081 2.703l.099.711-.88.002zM60.813 45c-1.287 0-2.398.468-3.056 1.191-.61-.701-1.624-1.16-2.757-1.16s-2.133.454-2.75 1.147c-.642-.73-1.721-1.208-2.943-1.208-.8-.009-1.586.21-2.266.633.05-3.96.025-12.82-.046-14.876v-.063l-.015-.062c-.389-1.605-1.589-3.226-3.79-2.962-1.565.188-3.19 1.449-3.19 3.235v27.763L38.94 61.5h-1.051c-.289-1.447-.988-4.845-1.325-5.52-.035-.185-.055-.373-.06-.561-.09-1.375-.279-4.24-4.258-7.171-2-1.473-3.731-1.855-5.151-1.138C25.5 47.916 25 49.785 25 50.375c0 .59.535 1.345 1.85 3.083.555.733 1.375 1.822 1.524 2.208-.064.334-.025 1.277.761 5.572.471 2.572 1 5.212 1.125 5.772.25 1.125 4.391 9.974 5.11 11.5v2.74h1.25v-3.015l-.059-.125c-1.875-3.987-4.909-10.6-5.08-11.375-.401-1.806-1.956-9.854-1.882-10.819.183-.583-.302-1.296-1.75-3.218-.602-.794-1.5-1.99-1.596-2.35.017-.333.39-1.615 1.407-2.126 1.201-.607 2.75.224 3.846 1.03 3.511 2.587 3.668 4.967 3.75 6.25.029.44.05.757.185 1.028.233.465.913 3.625 1.32 5.715l.099.5h2.95l1.44-3.883V30.875c0-.839.799-1.839 2.09-1.994.561-.067 1.91-.009 2.412 1.955.073 2.25.095 12.089.034 15.444 0 .016 0 .456-.006 1.104-.02.115-.03.232-.03.35v6.399H47v-6.398c0-.821 1.059-1.515 2.313-1.515 1.253 0 2.312.694 2.312 1.515v6.14h1.25v-6.11c0-.805.974-1.484 2.125-1.484s2.125.68 2.125 1.484v6.11h1.25V47.75c0-.813 1.116-1.5 2.438-1.5 1.32 0 2.437.688 2.437 1.5v21.397c-.125 1.9-.57 3.84-.945 4.073l-.108.067-3.403 4.838-.044 3.116 1.25.018.039-2.725 3.051-4.342c1.041-.847 1.332-3.75 1.41-4.986V47.75c0-1.542-1.625-2.75-3.688-2.75z"/>
        <rect width="29.875" height="9.125" x="32.25" y="80.875" fill="#FE5814" rx="1.25"/>
        <circle cx="13.128" cy="51.884" r="1.16" fill="#000" transform="rotate(-4.82 13.128 51.884)"/>
        <path fill="#000" d="M13.125 71.851c-.345 0-.625-.28-.625-.625V55.75c0-.345.28-.625.625-.625s.625.28.625.625v15.476c0 .345-.28.625-.625.625z"/>
        <circle cx="74.004" cy="70.07" r="1.16" fill="#000" transform="rotate(-85.18 74.004 70.07)"/>
        <path fill="#000" d="M74 66.825c-.345 0-.625-.28-.625-.625V50.725c0-.345.28-.625.625-.625s.625.28.625.625V66.2c0 .345-.28.625-.625.625z"/>
    </g>
</svg>
