<svg xmlns="http://www.w3.org/2000/svg" width="166" height="130" viewBox="0 0 166 130">
    <g fill="none">
        <path fill="#000" d="M164.92 129.83H.949c-.524 0-.949-.426-.949-.95s.425-.949.949-.949h163.97c.525 0 .95.425.95.95 0 .523-.425.948-.95.948z"/>
        <g transform="translate(15.562)">
            <path fill="#000" d="M92.099 107.416h-43.95l11.577-15.372H80.53l11.569 15.372zm-40.146-1.898h36.343l-8.713-11.576H60.665l-8.712 11.576z"/>
            <path fill="#000" d="M106.794 115.785h-73.34c-1.572 0-2.846-1.274-2.846-2.846v-4.661c0-1.573 1.274-2.847 2.847-2.847h73.339c1.572 0 2.846 1.274 2.846 2.847v4.66c0 1.573-1.274 2.847-2.846 2.847zm-73.34-8.456c-.523 0-.948.425-.948.949v4.66c0 .525.425.95.949.95h73.339c.524 0 .948-.425.948-.95v-4.66c0-.524-.424-.95-.948-.95h-73.34zM133.796 94.038H57.883c-.524 0-.949-.424-.949-.949 0-.524.425-.948.95-.948h75.912c2.457-.004 4.449-1.995 4.452-4.453v-7.031h-36.182c-.524 0-.949-.425-.949-.949s.425-.949.95-.949h38.077v8.93c-.004 3.504-2.844 6.344-6.348 6.35zm-81.606 0H6.453c-3.506-.004-6.346-2.844-6.35-6.35V78.76h14.66c.524 0 .949.425.949.949s-.425.949-.949.949H2.003v7.031c.002 2.457 1.993 4.448 4.45 4.453H52.19c.524 0 .949.424.949.948 0 .525-.425.95-.95.95zm44.183-13.381H20.46c-.524 0-.949-.425-.949-.949s.425-.949.95-.949h75.912c.524 0 .949.425.949.949s-.425.949-.95.949z"/>
            <path fill="#000" d="M139.195 11.654v2.676h-.932c.058.299.087.602.087.906v72.063c0 2.62-2.124 4.745-4.744 4.745H6.642c-2.62 0-4.744-2.124-4.744-4.745V15.238c0-.304.03-.607.087-.906h-.932v-2.678C.365 12.723 0 13.967 0 15.238v72.061c0 3.669 2.974 6.643 6.642 6.643h126.964c3.668 0 6.642-2.974 6.642-6.643V15.238c0-1.271-.364-2.515-1.053-3.584z"/>
            <path fill="#000" d="M140.144 15.28H.104V6.35C.11 2.845 2.948.005 6.453 0h127.343c3.505.004 6.346 2.845 6.35 6.35l-.002 8.93zM2.004 13.38h136.242v-7.03c-.003-2.458-1.994-4.449-4.45-4.453H6.453c-2.457.004-4.448 1.995-4.45 4.452l.001 7.031z"/>
            <circle cx="10.066" cy="7.641" r="1.761" fill="#000"/>
            <circle cx="16.591" cy="7.641" r="1.761" fill="#000"/>
            <circle cx="23.113" cy="7.641" r="1.761" fill="#000"/>
            <path fill="#000" d="M115.197 68.34H23.343c-1.572 0-2.847-1.274-2.847-2.847v-42.32c0-1.573 1.275-2.847 2.847-2.847h91.854c1.572 0 2.847 1.274 2.847 2.846v42.321c0 1.573-1.275 2.847-2.847 2.847zM23.343 22.223c-.524 0-.949.425-.949.95v42.32c0 .524.425.95.95.95h91.853c.524 0 .949-.426.949-.95v-42.32c0-.525-.425-.95-.949-.95H23.343z"/>
            <path fill="#FE5814" d="M77.73 40.941c2.412-.175 4.719 1.011 5.978 3.075 1.259 2.064 1.259 4.658 0 6.722-1.26 2.063-3.566 3.25-5.977 3.074H59.02c-2.723-.074-4.892-2.304-4.892-5.029s2.17-4.954 4.893-5.029h.359c-.541-4.254 2.44-8.152 6.688-8.742 4.248-.59 8.18 2.347 8.819 6.588.885-.436 1.86-.661 2.846-.659h-.003z"/>
            <path fill="#000" d="M78.102 54.77c-.132 0-.265 0-.398-.01H59.022c-3.177.004-5.803-2.476-5.98-5.648-.176-3.172 2.158-5.928 5.316-6.277-.082-4.417 3.132-8.206 7.503-8.847 4.371-.642 8.538 2.065 9.729 6.32 2.74-.964 5.789-.246 7.81 1.839 2.023 2.084 2.648 5.154 1.602 7.863-1.045 2.709-3.57 4.562-6.469 4.748-.153.009-.286.013-.43.013zm-19.08-10.073c-2.205.067-3.958 1.874-3.958 4.08 0 2.207 1.753 4.014 3.958 4.08h18.765c2.061.159 4.037-.851 5.116-2.614 1.079-1.763 1.079-3.982 0-5.745s-3.055-2.773-5.116-2.615h-.068c-.837.003-1.662.198-2.412.57l-1.179.58-.19-1.302c-.337-2.435-1.947-4.505-4.224-5.43-2.278-.925-4.876-.565-6.816.944-1.94 1.51-2.927 3.94-2.59 6.374l.15 1.08-1.436-.002z"/>
        </g>
        <g transform="translate(.19 25.43)">
            <rect width="56.407" height="74.483" x="1.097" y="1.167" fill="#FFF" rx="6.642"/>
            <path fill="#000" d="M50.861 76.598H7.74c-4.192 0-7.591-3.4-7.591-7.592V7.81C.148 3.617 3.547.22 7.739.22h43.122c4.193 0 7.592 3.398 7.592 7.59v61.197c0 4.193-3.4 7.592-7.592 7.592zM7.74 2.116c-3.144 0-5.693 2.55-5.693 5.693v61.197c0 3.145 2.549 5.694 5.693 5.694h43.122c3.145 0 5.694-2.55 5.694-5.694V7.81c0-3.144-2.55-5.693-5.694-5.693H7.74z"/>
            <path fill="#FFF" d="M6.35.974h45.56c1.434 0 2.809.568 3.822 1.582 1.013 1.013 1.582 2.388 1.582 3.82v9.087H.949V6.377c0-1.433.568-2.807 1.581-3.82C3.543 1.542 4.917.973 6.35.973z"/>
            <path fill="#000" d="M58.263 16.412H0V6.377C.004 2.87 2.845.03 6.35.027h45.56c3.507.003 6.349 2.844 6.353 6.35v10.035zM1.898 14.514h54.467V6.377c-.003-2.458-1.995-4.45-4.452-4.453H6.35C3.892 1.928 1.9 3.92 1.898 6.377v8.137z"/>
            <circle cx="7.73" cy="8.667" r="1.571" fill="#000"/>
            <circle cx="13.55" cy="8.667" r="1.571" fill="#000"/>
            <circle cx="19.371" cy="8.667" r="1.571" fill="#000"/>
            <path fill="#000" d="M23.977 49.134h-1.875c-.524 0-.949-.425-.949-.949s.425-.949.949-.949h1.875c.524 0 .949.425.949.95 0 .523-.425.948-.95.948zm-7.569 0h-7.59c-.525 0-.95-.425-.95-.949s.425-.949.95-.949h7.59c.525 0 .95.425.95.95 0 .523-.425.948-.95.948zM46.836 53.708h-7.591c-.524 0-.95-.425-.95-.949s.426-.949.95-.949h7.591c.524 0 .949.425.949.95 0 .523-.425.948-.949.948zm-13.285 0h-7.59c-.525 0-.95-.425-.95-.949s.425-.949.95-.949h7.59c.524 0 .95.425.95.95 0 .523-.426.948-.95.948zm-13.284 0h-7.592c-.524 0-.948-.425-.948-.949s.424-.949.948-.949h7.592c.524 0 .949.425.949.95 0 .523-.425.948-.95.948zM23.977 58.278h-7.591c-.524 0-.95-.425-.95-.949s.426-.949.95-.949h7.59c.525 0 .95.425.95.95 0 .523-.425.948-.95.948zm-13.285 0H8.817c-.524 0-.949-.425-.949-.949s.425-.949.95-.949h1.874c.524 0 .95.425.95.95 0 .523-.426.948-.95.948zM42.568 40.023H15.885c-1.573 0-2.847-1.275-2.847-2.847V24.208c0-1.572 1.274-2.846 2.847-2.846h26.683c.755 0 1.479.3 2.013.834.534.533.834 1.257.834 2.012v12.968c0 1.572-1.275 2.847-2.847 2.847zM15.885 23.26c-.524 0-.95.424-.95.948v12.968c0 .524.426.95.95.95h26.683c.524 0 .949-.426.949-.95V24.208c0-.524-.425-.948-.95-.948H15.886z"/>
        </g>
        <g transform="translate(122.978 35.679)">
            <rect width="39.474" height="64.715" x=".949" y="1.063" fill="#FFF" rx="6.642"/>
            <path fill="#000" d="M33.781 66.727H7.591C3.4 66.727 0 63.328 0 59.136V7.706C0 3.512 3.399.113 7.591.113h26.19c4.193 0 7.591 3.399 7.591 7.591v51.43c0 2.014-.8 3.945-2.223 5.369-1.424 1.423-3.355 2.223-5.368 2.223zM7.591 2.012c-3.144 0-5.693 2.549-5.693 5.693v51.43c0 3.145 2.549 5.694 5.693 5.694h26.19c3.144 0 5.693-2.549 5.693-5.693V7.706c0-3.145-2.549-5.694-5.693-5.694H7.591z"/>
            <path fill="#FFF" d="M13.854.968h13.664v3.351c0 .98-.793 1.773-1.772 1.773h-10.12c-.978 0-1.772-.794-1.772-1.773V.968z"/>
            <path fill="#000" d="M25.746 7.04h-10.12c-1.502 0-2.72-1.218-2.72-2.72V.018h15.561v4.3c0 1.503-1.219 2.72-2.721 2.722zM14.803 1.918v2.402c0 .455.369.824.824.824h10.119c.455 0 .823-.369.823-.824V1.917H14.803zM29.18 46.48h-3.704c-.524 0-.949-.426-.949-.95s.425-.949.95-.949h3.706c.524 0 .949.425.949.95 0 .523-.425.948-.95.948h-.001zm-9.4 0h-7.59c-.524 0-.95-.426-.95-.95s.426-.949.95-.949h7.59c.525 0 .95.425.95.95 0 .523-.425.948-.95.948zM29.18 53.311h-7.59c-.525 0-.95-.424-.95-.949 0-.524.425-.948.95-.948h7.59c.525 0 .95.424.95.948 0 .525-.425.95-.95.95zm-13.284 0h-3.704c-.525 0-.95-.424-.95-.949 0-.524.425-.948.95-.948h3.706c.524 0 .949.424.949.948 0 .525-.425.95-.949.95h-.002zM27.328 36.077H14.044c-1.572 0-2.847-1.274-2.847-2.846V18.238c0-1.572 1.275-2.847 2.847-2.847h13.284c1.573 0 2.847 1.275 2.847 2.847v14.993c0 1.572-1.274 2.846-2.847 2.846zM14.044 17.29c-.524 0-.95.425-.95.949v14.993c0 .524.426.949.95.949h13.284c.525 0 .95-.425.95-.95V18.239c0-.524-.425-.949-.95-.949H14.044z"/>
        </g>
    </g>
</svg>
