<svg xmlns="http://www.w3.org/2000/svg" width="168" height="130" viewBox="0 0 168 130">
    <g fill="none">
        <path fill="#000" d="M166.863 6.589v-.63C166.859 2.67 164.197.007 160.91 0H48.54c-3.29.004-5.955 2.67-5.959 5.959v.63c-.03.266-.046.534-.046.801v90.268c0 3.935 3.19 7.124 7.123 7.124h110.133c3.934 0 7.124-3.19 7.124-7.124V7.387c-.003-.267-.02-.533-.052-.798zm-122.506.109c.347-2.66 2.613-4.651 5.296-4.652H159.79c2.68.003 4.944 1.992 5.291 4.65v14.697H44.362l-.005-14.695zM159.79 103H49.658c-2.95 0-5.342-2.392-5.342-5.343V23.174h120.818v74.484c0 2.951-2.392 5.343-5.343 5.343z"/>
        <g transform="translate(19.945 11.041)">
            <rect width="122.599" height="102.737" x=".937" y=".894" fill="#FFF" rx="6.233"/>
            <path fill="#000" d="M117.303 104.522H7.17c-3.934 0-7.124-3.19-7.124-7.124V7.123C.046 3.19 3.236 0 7.17 0h110.133c3.934 0 7.123 3.19 7.123 7.123v90.275c0 3.935-3.19 7.124-7.123 7.124zM7.17 1.78c-2.951 0-5.343 2.392-5.343 5.342v90.275c0 2.951 2.392 5.343 5.343 5.343h110.133c2.95 0 5.342-2.392 5.342-5.343V7.123c0-2.95-2.392-5.342-5.342-5.342H7.17z"/>
            <path fill="#FFF" d="M6.055 1.389h112.37c2.799 0 5.068 2.27 5.068 5.068V22.78H.983V6.46c0-1.345.534-2.635 1.485-3.586.951-.951 2.242-1.485 3.587-1.484z"/>
            <path fill="#000" d="M124.38 23.672H.093V6.46C.096 3.168 2.763.501 6.055.499h112.37c3.289.004 5.954 2.669 5.958 5.958l-.003 17.215zM1.873 21.892H122.6V6.459c-.002-2.305-1.869-4.175-4.174-4.18H6.055c-2.306.003-4.175 1.872-4.178 4.178l-.004 15.435z"/>
            <circle cx="11.456" cy="12.086" r="1.653" fill="#000"/>
            <circle cx="17.578" cy="12.086" r="1.653" fill="#000"/>
            <circle cx="23.699" cy="12.086" r="1.653" fill="#000"/>
        </g>
        <path fill="#000" d="M166.915 129.988H13.052c-.492 0-.89-.4-.89-.89 0-.493.398-.891.89-.891h153.863c.491 0 .89.398.89.89s-.399.89-.89.89z"/>
        <g transform="translate(93.85 40.78)">
            <path fill="#FFF" d="M64.676 52.862L37.04 25.22l-.089-.084c2.37-7.185.11-15.09-5.703-19.934C25.437.357 17.255-.443 10.614 3.182c.236.174.458.366.666.574l9.81 9.81c2.258 2.258 2.258 5.918 0 8.176-2.257 2.258-5.918 2.258-8.175 0l-9.816-9.81c-.123-.123-.239-.252-.357-.383C-.373 18.215.773 26.096 5.66 31.598c4.886 5.502 12.576 7.571 19.564 5.265l.083.09L52.95 64.588c1.555 1.555 3.664 2.429 5.864 2.429 2.199 0 4.308-.874 5.863-2.43 1.555-1.554 2.429-3.663 2.429-5.863 0-2.199-.874-4.308-2.43-5.863z"/>
            <path fill="#000" d="M58.812 67.908c-2.437.007-4.775-.962-6.493-2.689L24.972 37.871c-7.293 2.174-15.183-.135-20.154-5.898-4.97-5.763-6.096-13.907-2.875-20.802.129-.275.39-.466.691-.505.302-.04.602.078.798.311.101.121.197.228.295.326l9.807 9.81c1.236 1.236 3.037 1.719 4.724 1.266 1.688-.452 3.007-1.77 3.459-3.458.452-1.688-.03-3.489-1.266-4.724l-9.81-9.81c-.176-.177-.365-.34-.565-.487-.245-.18-.38-.473-.36-.776.02-.303.193-.575.46-.722 6.873-3.75 15.33-2.983 21.416 1.942 6.086 4.926 8.6 13.037 6.364 20.541l27.349 27.347c2.623 2.626 3.407 6.574 1.986 10.003-1.42 3.43-4.767 5.667-8.48 5.668v.005zM25.224 35.973c.241 0 .473.098.64.272l.075.078 27.639 27.635c2.89 2.89 7.577 2.89 10.467 0 2.891-2.89 2.891-7.577 0-10.467L36.404 25.85l-.08-.077c-.245-.238-.332-.594-.225-.917 2.181-6.618.24-13.9-4.948-18.553-5.187-4.653-12.636-5.795-18.98-2.91l9.543 9.542c1.686 1.686 2.344 4.143 1.727 6.446-.617 2.304-2.416 4.102-4.72 4.72-2.302.617-4.76-.042-6.446-1.728l-9.237-9.237C.644 19.462 2.098 26.6 6.775 31.484c4.677 4.885 11.744 6.648 18.167 4.531.091-.029.186-.043.282-.042z"/>
            <path fill="#FFF" d="M69.148 5.002l-5.24-3.934-9.17 7.861 2.613 1.959c-.053.06-.106.121-.156.187L45.7 26.338l4.264 3.206L61.458 14.28c.052-.067.098-.138.142-.21l3.615 2.712 3.933-11.78z"/>
            <path fill="#000" d="M49.966 30.452c-.192 0-.38-.062-.534-.178l-4.263-3.206c-.19-.141-.314-.352-.347-.586-.034-.234.027-.471.169-.66l11.105-14.758-1.891-1.424c-.217-.163-.347-.414-.356-.684-.009-.27.106-.53.311-.705L63.331.39c.317-.271.78-.286 1.113-.036l5.241 3.93c.307.23.431.631.31.994l-3.927 11.797c-.09.27-.305.482-.578.568-.273.085-.57.034-.8-.138l-2.895-2.17-11.118 14.76c-.142.19-.354.314-.588.346-.04.007-.082.01-.123.011zm-3.016-4.274l2.849 2.137 10.957-14.553c.03-.04.063-.087.096-.14.132-.214.347-.362.593-.409.246-.047.5.012.7.163l2.627 1.971 3.337-10.01-4.154-3.116-7.795 6.665 1.727 1.295c.2.15.328.378.352.627.024.249-.058.496-.225.682-.036.039-.071.08-.105.125l-10.96 14.563z"/>
            <rect width="16.011" height="45.794" x="27.34" y="22.502" fill="#FFF" rx="2.671" transform="rotate(36.98 35.346 45.399)"/>
            <path fill="#000" d="M27.439 68.323c-.77.001-1.521-.249-2.137-.712L16.779 61.2c-1.57-1.183-1.886-3.415-.704-4.987L40.407 23.89c1.183-1.571 3.415-1.886 4.986-.704l8.523 6.411c1.57 1.183 1.886 3.415.704 4.987L30.288 66.905c-.674.895-1.73 1.42-2.85 1.418zm15.815-44.072c-.56 0-1.088.264-1.424.713l-24.332 32.31c-.59.788-.43 1.904.357 2.494l8.523 6.41c.377.284.852.406 1.32.34.467-.068.89-.317 1.173-.695L53.198 33.52c.284-.377.406-.852.339-1.32-.067-.467-.317-.89-.695-1.173l-8.523-6.41c-.306-.234-.68-.362-1.065-.366z"/>
        </g>
        <g>
            <path fill="#FE5814" d="M45.11 12.323c4.446-.254 8.667 1.973 10.967 5.787 2.3 3.813 2.3 8.587 0 12.4-2.3 3.814-6.521 6.041-10.967 5.787H10.258c-5.126-.07-9.244-4.246-9.244-9.372 0-5.126 4.118-9.3 9.244-9.371h.667C9.922 9.629 15.48 2.372 23.392 1.276 31.304.18 38.626 5.653 39.814 13.552c1.647-.811 3.46-1.23 5.296-1.227v-.002z" transform="translate(0 43.096)"/>
            <path fill="#000" d="M45.803 37.207c-.24 0-.48 0-.713-.02H10.258C4.656 37.181.094 32.685.006 27.085c-.087-5.601 4.332-10.238 9.931-10.418-.58-8.1 5.2-15.27 13.24-16.421C31.213-.906 38.774 4.35 40.493 12.288c1.466-.56 3.022-.85 4.591-.852 7.111-.403 13.204 5.034 13.607 12.146.404 7.111-5.034 13.203-12.145 13.607-.246.01-.495.018-.744.018zM10.258 18.442c-4.637.067-8.36 3.845-8.36 8.481 0 4.637 3.723 8.414 8.36 8.482h34.904c4.118.239 8.03-1.823 10.162-5.355 2.13-3.532 2.13-7.954 0-11.486-2.132-3.532-6.044-5.593-10.162-5.354h-.077c-1.691.002-3.36.391-4.878 1.136l-1.105.545-.179-1.221c-1.21-7.324-8.037-12.349-15.39-11.33-7.353 1.02-12.554 7.714-11.726 15.09l.14 1.014-1.69-.002z" transform="translate(0 43.096)"/>
        </g>
    </g>
</svg>
