<svg xmlns="http://www.w3.org/2000/svg" width="128" height="135" viewBox="0 0 128 135">
    <g fill="none" fill-rule="evenodd">
        <g>
            <path fill="#000" fill-rule="nonzero" d="M36.014 45.947H3.66c-2.021 0-3.66-1.64-3.66-3.66V23.943c0-2.021 1.639-3.66 3.66-3.66h32.354c2.02 0 3.66 1.639 3.66 3.66v18.344c0 2.02-1.64 3.66-3.66 3.66zM3.66 21.747c-1.213 0-2.196.983-2.196 2.196v18.344c0 1.212.983 2.196 2.196 2.196h32.354c1.212 0 2.195-.984 2.195-2.196V23.943c0-1.213-.983-2.196-2.195-2.196H3.66z" transform="translate(0 1) translate(9.37)"/>
            <path stroke="#000" stroke-width="1.464" d="M19.837 0h0c8.44 0 15.283 6.843 15.283 15.284v5.731H4.553v-5.731C4.553 6.843 11.396 0 19.837 0z" transform="translate(0 1) translate(9.37)"/>
            <path stroke="#000" stroke-width="1.464" d="M30.026 21.015v-6.263c0-5.627-4.562-10.189-10.19-10.189h0c-5.627 0-10.188 4.562-10.188 10.19v6.262h20.378z" transform="translate(0 1) translate(9.37)"/>
            <path fill="#000" fill-rule="nonzero" d="M21.842 40.215h-4.01v-3.65c-1.902-.933-2.91-3.053-2.43-5.116.479-2.063 2.317-3.524 4.435-3.524 2.118 0 3.956 1.46 4.435 3.524.479 2.063-.528 4.183-2.43 5.116v3.65zm-2.547-1.464h1.083v-3.188l.488-.173c1.418-.502 2.269-1.952 2.014-3.435-.254-1.483-1.54-2.566-3.044-2.566s-2.79 1.083-3.044 2.566c-.255 1.483.596 2.933 2.014 3.435l.488.173.001 3.188z" transform="translate(0 1) translate(9.37)"/>
        </g>
        <path fill="#000" fill-rule="nonzero" d="M127.218 132.978H.732c-.404 0-.732-.328-.732-.732 0-.404.328-.732.732-.732h126.486c.405 0 .732.328.732.732 0 .404-.327.732-.732.732z" transform="translate(0 1)"/>
        <g fill="#000" fill-rule="nonzero" transform="translate(0 1) translate(0 22.984)">
            <path d="M83.778 88.813H44.172L54.537 75.04h18.876l10.365 13.773zm-36.673-1.464h33.74l-8.162-10.845H55.262l-8.157 10.845z"/>
            <path d="M97.742 96.453H30.209c-1.213 0-2.196-.983-2.196-2.196V89.46c0-1.213.983-2.196 2.196-2.196h67.533c1.212 0 2.195.983 2.195 2.196v4.797c0 1.213-.983 2.196-2.195 2.196zm-67.533-7.725c-.404 0-.732.328-.732.732v4.797c0 .405.328.732.732.732h67.533c.404 0 .732-.327.732-.732V89.46c0-.404-.328-.732-.732-.732H30.209z"/>
            <circle cx="10.4" cy="69.461" r="1.359"/>
            <circle cx="16.512" cy="69.461" r="1.359"/>
            <path d="M10.17 60.879c-.404 0-.732-.328-.732-.732V28.525c0-.404.328-.732.732-.732.404 0 .732.328.732.732v31.622c0 .404-.328.732-.732.732zM73.74 64.365h42.092c.404 0 .732-.328.732-.732 0-.405-.328-.732-.732-.732H75.236c-.465.5-.963.987-1.496 1.464zM1.61 70.191v-5.826h51.268c.405 0 .732-.328.732-.732v-.034c-.233-.224-.465-.455-.695-.694H.146v7.29c0 .405.328.733.732.733.405 0 .732-.328.732-.732v-.005zM59.952 75.125H5.054c-1.02-.001-1.985-.455-2.636-1.239-.261-.299-.714-.335-1.02-.08-.304.254-.35.706-.104 1.017.93 1.12 2.31 1.767 3.765 1.766h54.9c.403 0 .731-.328.731-.732 0-.405-.328-.732-.732-.732h-.006z"/>
            <path d="M120.224 62.9c-.405 0-.732.328-.732.733 0 .404.327.732.732.732h6.116v7.32c-.002 1.895-1.539 3.431-3.434 3.434H64.347c-.404 0-.732.328-.732.732 0 .404.328.732.732.732h58.559c2.701-.003 4.892-2.191 4.898-4.893v-8.783l-7.58-.006zM63.571 70.395l-.192-.056c-.175-.05-4.345-1.268-8.66-4.784-3.994-3.253-8.841-9.162-9.261-18.833V31.554l.787.06c.895.07 1.808.103 2.711.103 5.814 0 11.245-1.428 14.175-3.723l.45-.354.451.354c2.928 2.297 8.36 3.723 14.174 3.723 1.172 0 2.343-.057 3.486-.17l.804-.08v15.226c0 .192-.027 4.764-2.343 9.989-2.138 4.84-6.72 11.14-16.396 13.664l-.186.049zM46.92 46.678c.177 4.03 1.171 7.705 2.959 10.923 1.469 2.618 3.425 4.93 5.763 6.813 3.587 2.928 7.12 4.183 7.954 4.455 3.93-1.057 7.285-2.852 9.973-5.339 2.229-2.083 4.009-4.6 5.229-7.396 2.196-4.948 2.232-9.403 2.232-9.447V33.072c-.932.072-1.88.107-2.825.107-5.938 0-11.344-1.374-14.625-3.7-3.28 2.324-8.687 3.7-14.625 3.7-.676 0-1.359-.019-2.035-.055v13.554zM119.46 6.83h-.078c-.404 0-.732-.327-.732-.731 0-.404.328-.732.732-.732h.077c.405 0 .732.328.732.732 0 .404-.327.732-.732.732zm-4.47 0h-5.856c-.404 0-.732-.327-.732-.731 0-.404.328-.732.732-.732h5.856c.404 0 .732.328.732.732 0 .404-.328.732-.732.732zm-10.248 0h-5.856c-.404 0-.732-.327-.732-.731 0-.404.328-.732.732-.732h5.856c.404 0 .732.328.732.732 0 .404-.328.732-.732.732zm-10.248 0H88.64c-.405 0-.732-.327-.732-.731 0-.404.327-.732.732-.732h5.855c.405 0 .732.328.732.732 0 .404-.327.732-.732.732zm-10.247 0H78.39c-.404 0-.732-.327-.732-.731 0-.404.328-.732.732-.732h5.856c.404 0 .732.328.732.732 0 .404-.328.732-.732.732zm-10.248 0h-5.856c-.404 0-.732-.327-.732-.731 0-.404.328-.732.732-.732H74c.404 0 .732.328.732.732 0 .404-.328.732-.732.732z"/>
            <path d="M122.774.124h-74.44c.081.271.123.552.123.835v.63h74.317c2.021 0 3.66 1.638 3.66 3.66V71.38c0 2.021-1.639 3.66-3.66 3.66H5.177c-2.022 0-3.66-1.639-3.66-3.66V5.248c0-2.021 1.638-3.66 3.66-3.66h5.07v-.63c.001-.282.043-.563.124-.834H5.177C2.347.124.053 2.418.053 5.248V71.38c0 2.83 2.294 5.124 5.124 5.124h117.597c2.83 0 5.124-2.294 5.124-5.124V5.248c0-2.83-2.294-5.124-5.124-5.124z"/>
        </g>
        <g fill-rule="nonzero">
            <path fill="#FE5814" d="M13.908 4.164c1.323-.076 2.58.587 3.264 1.722.685 1.135.685 2.556 0 3.69-.684 1.136-1.941 1.799-3.264 1.723H3.54c-1.54 0-2.79-1.25-2.79-2.79s1.25-2.79 2.79-2.79h.2C3.454 3.37 5.107 1.224 7.453.898c2.346-.325 4.52 1.29 4.884 3.631.49-.242 1.03-.367 1.577-.366l-.007.002z" transform="translate(0 1) translate(54.752 66.025)"/>
            <path fill="#000" d="M14.12 12.037H3.54c-1.833 0-3.36-1.406-3.51-3.233-.15-1.828 1.127-3.464 2.936-3.762C3.011 2.562 4.84.478 7.292.112c2.452-.364 4.81 1.097 5.573 3.456 1.594-.473 3.318.009 4.435 1.24 1.118 1.231 1.431 2.994.806 4.534-.624 1.541-2.076 2.588-3.736 2.693-.085-.001-.17.002-.25.002zM3.54 6.452c-1.136 0-2.057.92-2.057 2.057 0 1.136.921 2.056 2.057 2.056h10.415c.11.007.219.007.328 0 1.025-.042 1.948-.634 2.415-1.548.466-.915.402-2.01-.166-2.864-.568-.855-1.553-1.337-2.577-1.26h-.048c-.433 0-.859.101-1.246.292l-.91.448-.146-1.004c-.161-1.29-1.004-2.394-2.207-2.89-1.203-.494-2.579-.304-3.602.5-1.023.802-1.535 2.094-1.34 3.38l.116.833H3.541z" transform="translate(0 1) translate(54.752 66.025)"/>
        </g>
    </g>
</svg>
