<svg xmlns="http://www.w3.org/2000/svg" width="156" height="131" viewBox="0 0 156 131">
    <g fill="none" fill-rule="evenodd">
        <g stroke="#000" stroke-linecap="round" stroke-linejoin="round" stroke-width="1.778">
            <path d="M.094 7.425H21.701V22.63H.094zM.094 22.63H21.701V37.835H.094zM21.702 22.63H43.309V37.835H21.702zM43.309 22.63H64.916V37.835H43.309zM64.916 22.63H86.523V37.835H64.916zM.094 37.835H21.701V53.04H.094zM21.702 37.835H43.309V53.04H21.702zM43.309 37.835H64.916V53.04H43.309zM64.916 37.835H86.523V53.04H64.916zM38.621 7.736c0-2.618 2.096-4.753 4.713-4.802v-2.8H21.727v15.205h21.607v-2.803c-2.616-.049-4.712-2.183-4.713-4.8zM69.668 15.027c0-2.617-2.095-4.753-4.712-4.801V7.425h21.607V22.63H64.956v-2.803c2.616-.048 4.712-2.183 4.712-4.8h0z" transform="translate(29.521 61.71)"/>
        </g>
        <path fill="#000" fill-rule="nonzero" d="M133.459 42.466c-.112-.293-.55-1.423-1.023-2.456-.428-.893-1.084-1.657-1.902-2.216l-.025-.014-6.378-3.863-2.573-12.043.222-.19.027.03c.724.829 1.979.925 2.82.215l7.395-6.28c.406-.342.657-.833.697-1.363.04-.53-.133-1.053-.482-1.453L121.69.69c-.725-.829-1.98-.924-2.82-.215l-7.395 6.27c-.628.531-.863 1.394-.59 2.17-1.523.978-5.674 3.838-7.383 6.99-1.279 2.355-2.826 6.321-3.955 9.216-.64 1.642-1.193 3.06-1.476 3.62-.134.263-.288.556-.457.873-.907 1.709-2.148 4.05-2.469 6.48l-.037.276c-.238 1.807-.509 3.854-1.014 5.571-.355 1.215-1.38 2.373-2.367 3.493-.489.553-.994 1.126-1.412 1.7-.248.342-.222.81.063 1.122.935.931 2.228 1.41 3.544 1.311 2.171-.165 4.321-1.82 6.39-4.919.023-.035.044-.072.062-.11.356-.713.776-1.391 1.255-2.027.83-1.082 1.645-1.663 2.23-1.59 1.92.233 3.086 2.116 3.733 3.645.306.756.552 1.534.735 2.328.158.651.02 1.138-.192 1.878-.057.201-.118.407-.178.626l-.89 3.518-.325 1.28c-3.471 1.067-5.39 2.342-5.856 3.902-.232.732-.086 1.532.391 2.134.163.19.397.301.646.31.027 0 2.65.087 3.557.156 1.067.082 2.288-.3 2.47-.356.181-.055 1.908-.585 3.265-1.067 1.383-.498 1.912-1.863 2.017-2.18l2.26-5.413 1.439 6.066c-2.364 4.104-3.063 7.206-2.078 9.219.492 1.012 1.441 1.727 2.55 1.919.379.048.745-.149.913-.491.178-.356 4.377-8.92 4.818-10.037.31-.813.457-1.679.435-2.549-.002-.034-.006-.069-.012-.103l-.829-4.844.984 1.362.736 4.064c-1.01 3.485-.927 5.8.256 7.074.705.722 1.728 1.038 2.717.838.302-.067.548-.285.65-.576.014-.041 1.435-4.107 1.833-5.062.303-.8.46-1.65.462-2.506 0-.273.087-3.345.071-4.782-.02-1.826-.71-2.918-.889-3.17l-3.587-5.844 1.338.402 1.698 2.178c-.078 1.734.293 3.054 1.106 3.913.543.592 1.3.944 2.102.978.425-.004.788-.308.866-.726 0-.021.413-2.21.681-3.734.27-1.558-.113-2.478-.293-2.805zM112.625 8.102l7.395-6.27c.042-.035.095-.054.15-.054.067 0 .132.028.177.079l10.542 12.15c.038.041.056.096.052.152-.004.056-.032.107-.075.143l-7.394 6.272c-.098.081-.243.07-.328-.025L112.602 8.398c-.037-.042-.055-.097-.05-.152.004-.055.03-.107.073-.142v-.002zm19.372 36.868c-.151.855-.345 1.919-.487 2.689-.04-.034-.077-.07-.112-.109-.503-.533-.712-1.548-.61-2.92.019-.22-.044-.44-.178-.615l-2.079-2.668c-.113-.144-.268-.25-.445-.304l-3.843-1.154c-.353-.106-.734.017-.96.31-.224.291-.246.692-.053 1.006l4.814 7.864c.013.023.028.045.044.066.023.03.553.777.57 2.164.015 1.437-.072 4.695-.072 4.729v.036c-.003.62-.113 1.236-.325 1.819-.327.784-1.245 3.395-1.667 4.577-.23-.037-.44-.15-.597-.321-.326-.356-.955-1.624.215-5.55.04-.135.048-.276.023-.413l-.809-4.47c-.025-.128-.078-.25-.155-.355l-3.35-4.636c-.241-.34-.686-.467-1.07-.306-.384.161-.605.568-.53.978l1.47 8.547c.003.6-.104 1.196-.315 1.759-.315.798-3.023 6.357-4.407 9.185-.269-.175-.484-.421-.622-.711-.41-.842-.674-2.977 2.193-7.847.116-.197.152-.432.1-.656l-2.153-9.07c-.088-.375-.409-.65-.793-.68h-.073c-.358 0-.681.215-.82.545l-3.329 7.973c-.011.027-.022.055-.03.083 0 0-.28.84-.934 1.067-1.348.486-3.172 1.044-3.19 1.05h-.018c-.286.094-1.166.327-1.789.279-.684-.052-2.217-.11-3.059-.14.002-.061.012-.12.029-.179.105-.355.786-1.6 5.136-2.845.304-.088.538-.33.615-.637l.448-1.767.89-3.518c.051-.2.104-.391.158-.574.236-.827.482-1.683.211-2.79-.204-.885-.48-1.751-.821-2.592-1.181-2.826-2.961-4.46-5.158-4.725-1.289-.156-2.592.617-3.875 2.298-.533.71-1.001 1.465-1.4 2.258-1.701 2.536-3.423 3.947-4.979 4.09-.521.044-1.045-.063-1.508-.307.239-.286.496-.578.763-.879 1.117-1.264 2.271-2.573 2.74-4.166.545-1.852.824-3.972 1.068-5.84l.037-.276c.28-2.113 1.433-4.29 2.276-5.881.178-.33.335-.632.473-.906.322-.636.861-2.02 1.546-3.773 1.113-2.846 2.637-6.758 3.862-9.013 1.462-2.684 5.18-5.29 6.668-6.257l8.635 10.064-.366.315c-.247.212-.36.542-.292.86l2.755 12.937c.051.24.2.449.41.576l6.702 4.05c.528.376.956.877 1.245 1.458.512 1.122 1 2.406 1.005 2.418.017.06.046.117.083.167.048.09.269.609.09 1.633z"/>
        <g fill-rule="nonzero">
            <path fill="#FFF" d="M24.618 9.973s5.374 3.781 7.066 7.564c1.691 3.782 3.734 11.495 4.428 13.185.693 1.69 2.134 4.527 2.29 7.266.109 1.956.214 4.137.621 6.047.448 2.1 2.385 3.96 3.486 5.746 0 0-3.874 3.636-8.247-4.144 0 0-1.753-4.544-4.069-4.446-2.247.101-3.795 1.978-4.743 3.836-.382.77-.704 1.57-.962 2.392-.355 1.067-.046 1.873.143 2.954l.414 2.377.521 2.995c7.501 2.8 5.157 5.158 5.157 5.158s-2.657-.116-3.603-.116c-.946 0-2.103-.482-2.103-.482s-1.798-.711-3.143-1.307c-1.067-.48-1.353-1.76-1.353-1.76l-2.712-8.203-2.837 8.892c4.829 9.844-.41 10.114-.41 10.114s-3.668-9.182-4.016-10.315c-.21-.712-.28-1.457-.208-2.196l2.134-8.47-3.694 4.367-1.147 4.395c1.754 8.086-2.397 6.84-2.397 6.84s-1.12-4.219-1.458-5.238c-.206-.713-.283-1.456-.228-2.196 0 0 .162-3.288.292-4.754.152-1.734.947-2.621.947-2.621l5.41-7.47-3.912.86-2.277 2.5c0 4.329-2.612 4.104-2.612 4.104s-.24-2.214-.395-3.771c-.154-1.558.391-2.25.391-2.25s.594-1.268 1.213-2.389c.415-.706 1.002-1.296 1.708-1.712l7.012-3.537 3.734-12.69-.97-.968 10.53-10.557z" transform="translate(19.918 10.67)"/>
            <path fill="#000" d="M14.554 68.921c-.363 0-.69-.222-.825-.56-.15-.377-3.685-9.228-4.04-10.375-.247-.835-.328-1.71-.24-2.575.004-.034.01-.068.02-.101l1.194-4.749-1.085 1.283-1.042 3.997c.742 3.557.482 5.855-.795 7.034-.756.668-1.8.908-2.772.636-.295-.088-.524-.324-.603-.622-.01-.043-1.117-4.204-1.442-5.186-.242-.822-.333-1.681-.27-2.536.014-.274.167-3.341.293-4.771.16-1.82.935-2.856 1.133-3.094l4.022-5.554-1.364.298-1.862 2.04c-.055 1.736-.533 3.023-1.401 3.825-.585.553-1.367.847-2.171.817-.424-.037-.762-.368-.808-.79 0-.021-.242-2.235-.395-3.779-.154-1.583.297-2.472.504-2.783.135-.283.656-1.375 1.207-2.372.494-.857 1.204-1.568 2.06-2.063l.024-.013 6.668-3.365 3.475-11.812-.598-.597c-.347-.347-.347-.91 0-1.257l10.55-10.55c.305-.305.786-.346 1.14-.098.227.16 5.594 3.968 7.365 7.928 1.096 2.446 2.337 6.516 3.242 9.49.514 1.684.957 3.139 1.197 3.72.112.274.246.576.388.905.774 1.779 1.833 4.205 1.969 6.652l.016.279c.1 1.82.213 3.88.587 5.632.265 1.245 1.195 2.47 2.094 3.662.445.588.906 1.198 1.277 1.803.222.36.16.826-.147 1.115-1.006.855-2.334 1.231-3.639 1.031-2.153-.33-4.17-2.144-5.997-5.392-.02-.037-.04-.075-.055-.115-.5-1.288-1.943-3.925-3.2-3.874-1.929.088-3.236 1.871-3.991 3.353-.363.73-.666 1.486-.91 2.264-.207.636-.106 1.134.049 1.888.042.205.085.416.124.639l.614 3.52.236 1.356c3.38 1.325 5.197 2.746 5.542 4.336.174.745-.032 1.528-.55 2.091-.176.176-.418.27-.667.26-.026 0-2.648-.116-3.556-.116-1.067 0-2.26-.475-2.437-.548-.176-.072-1.858-.729-3.172-1.32-1.341-.602-1.765-2.003-1.845-2.327l-1.842-5.57-1.903 5.94c2.045 4.268 2.506 7.418 1.37 9.35-.568.973-1.569 1.613-2.69 1.72h-.046zm-3.35-13.236c-.05.598.011 1.201.178 1.778.252.82 2.527 6.566 3.693 9.493.29-.157.53-.393.69-.68.461-.814.865-2.928-1.6-7.965-.1-.206-.118-.443-.048-.661l2.836-8.892c.118-.367.458-.617.843-.619.384.002.725.247.849.61l2.712 8.204c.009.028.017.058.023.087 0 0 .211.855.85 1.142 1.309.587 3.084 1.282 3.101 1.289h.018c.278.116 1.138.414 1.762.414.689 0 2.22.059 3.061.093.003-.07-.005-.14-.023-.206-.12-.457-.834-1.683-4.896-3.202-.296-.11-.511-.37-.565-.68l-.322-1.854-.614-3.52c-.035-.204-.075-.398-.114-.584-.178-.843-.355-1.715 0-2.8.273-.857.614-1.69 1.018-2.495 1.392-2.728 3.291-4.22 5.495-4.32 1.305-.054 2.54.814 3.688 2.587.478.747.887 1.537 1.224 2.358 1.513 2.667 3.135 4.216 4.687 4.446.511.078 1.034.012 1.509-.192-.217-.303-.45-.614-.692-.932-1.017-1.347-2.069-2.739-2.415-4.364-.402-1.894-.52-4.028-.628-5.903l-.016-.28c-.117-2.133-1.103-4.386-1.823-6.046-.148-.34-.286-.654-.402-.937-.272-.66-.711-2.08-1.245-3.878-.889-2.928-2.114-6.936-3.163-9.282-1.245-2.794-4.758-5.675-6.17-6.758l-9.379 9.387.342.341c.23.23.316.568.224.88l-3.735 12.69c-.07.234-.233.43-.452.542l-6.994 3.528c-.553.336-1.016.802-1.346 1.359-.598 1.08-1.181 2.322-1.186 2.335-.023.058-.055.112-.097.16-.053.089-.316.588-.215 1.627.086.862.198 1.938.281 2.717.052-.038.102-.08.148-.124.533-.507.804-1.489.804-2.846 0-.221.082-.435.23-.599l2.277-2.5c.124-.137.288-.231.468-.27l3.912-.86c.361-.079.733.073.935.382.202.309.193.71-.024 1.009l-5.41 7.47c-.018.024-.037.048-.057.07-.018.022-.603.726-.725 2.108-.127 1.431-.287 4.686-.288 4.72-.002.033 0 .024 0 .037-.044.618.019 1.24.186 1.837.267.806.989 3.48 1.313 4.69.232-.02.45-.118.62-.276.356-.334 1.076-1.545.208-5.55-.032-.136-.032-.277 0-.413l1.15-4.394c.03-.13.092-.252.177-.356l3.694-4.368c.267-.317.717-.407 1.086-.218.368.19.557.608.456 1.01l-2.104 8.424z" transform="translate(19.918 10.67)"/>
            <path fill="#FFF" d="M13.176 20.937L24.618 9.625c.21-.206.327-.487.327-.78 0-.293-.118-.574-.327-.78l-6.895-6.82c-.438-.43-1.14-.43-1.577 0L4.704 12.557c-.21.206-.327.487-.327.78 0 .293.118.574.327.78l6.895 6.818c.437.43 1.139.431 1.577.002z" transform="translate(19.918 10.67)"/>
            <path fill="#000" d="M12.386 22.148c-.532.004-1.043-.204-1.422-.578l-6.886-6.81c-.378-.372-.59-.88-.59-1.411s.212-1.04.59-1.412L15.52.624c.785-.771 2.044-.771 2.83 0l6.894 6.817c.378.372.591.881.591 1.412 0 .53-.213 1.04-.59 1.412L13.801 21.577c-.378.37-.887.575-1.416.571zm4.548-20.332c-.061 0-.12.023-.164.066L5.335 13.192c-.04.039-.063.092-.063.148 0 .055.023.109.063.147l6.895 6.819c.091.087.236.087.327 0L24 8.993c.04-.038.063-.092.063-.147 0-.056-.022-.11-.063-.148l-6.9-6.816c-.044-.043-.104-.067-.165-.066z" transform="translate(19.918 10.67)"/>
        </g>
        <path fill="#000" fill-rule="nonzero" d="M154.542 129.956H.889c-.49 0-.889-.399-.889-.89 0-.49.398-.889.89-.889h153.652c.49 0 .889.398.889.89 0 .49-.398.889-.89.889z"/>
        <g fill-rule="nonzero">
            <path fill="#FE5814" d="M19.178 5.597c1.822-.104 3.551.808 4.493 2.37.942 1.563.942 3.518 0 5.08-.942 1.563-2.671 2.476-4.493 2.372H4.898c-2.121 0-3.84-1.72-3.84-3.84 0-2.122 1.719-3.841 3.84-3.841h.274C4.76 4.49 7.037 1.516 10.28 1.068c3.242-.45 6.242 1.793 6.728 5.03.675-.332 1.418-.505 2.17-.503v.002z" transform="translate(76.47 46.416)"/>
            <path fill="#000" d="M19.463 16.317H4.898c-2.486.007-4.554-1.911-4.731-4.391-.178-2.48 1.595-4.674 4.057-5.02.013-3.394 2.503-6.27 5.86-6.766 3.358-.497 6.574 1.533 7.57 4.777 2.153-.685 4.508-.067 6.047 1.586 1.54 1.654 1.988 4.047 1.15 6.145-.836 2.099-2.808 3.527-5.063 3.667l-.325.002zM4.898 8.629c-1.63 0-2.952 1.321-2.952 2.951 0 1.63 1.322 2.951 2.952 2.951H19.23c.155.009.31.009.466 0 2.222-.128 3.919-2.034 3.79-4.256-.128-2.223-2.034-3.92-4.256-3.791h-.054c-.616-.004-1.226.136-1.778.41l-1.104.545-.178-1.22c-.191-1.85-1.377-3.449-3.092-4.168-1.715-.72-3.686-.446-5.14.714C6.43 3.925 5.726 5.787 6.047 7.62l.14 1.012-1.29-.002z" transform="translate(76.47 46.416)"/>
        </g>
    </g>
</svg>
