<svg xmlns="http://www.w3.org/2000/svg" width="156" height="131" viewBox="0 0 156 131">
    <g fill="none">
        <path fill="#000" d="M154.33 130H.889c-.49 0-.888-.398-.888-.888s.398-.888.888-.888h153.443c.49 0 .888.398.888.888s-.398.888-.888.888z"/>
        <g fill="#000" transform="translate(31.79 30.546)">
            <path d="M1.623 50.615c-.49 0-.888-.398-.888-.888V.993c0-.49.398-.888.888-.888s.888.397.888.888v48.734c0 .49-.397.888-.888.888z"/>
            <circle cx="1.742" cy="57.04" r="1.648"/>
        </g>
        <g>
            <path fill="#FE5814" d="M37.828 15.888c0-1.962 1.59-3.552 3.552-3.552h3.836C42.356 4.173 33.776-.495 25.368 1.539 16.961 3.573 11.463 11.646 12.65 20.214h-.77c-5.976 0-10.82 4.844-10.82 10.82 0 5.974 4.844 10.818 10.82 10.818h25.948V15.888z" transform="translate(13.32)"/>
            <path fill="#000" d="M37.74 40.964H11.88c-5.485 0-9.931-4.446-9.931-9.93 0-5.486 4.446-9.932 9.931-9.932h1.794l-.14-1.01C12.412 11.9 17.735 4.21 25.797 2.376c8.061-1.833 16.187 2.799 18.717 10.67h1.856C43.874 4.28 35.137-1.163 26.17.46c-8.968 1.623-15.243 9.783-14.51 18.867C5.234 19.439.098 24.714.159 31.143c.06 6.43 5.294 11.607 11.723 11.597H37.74v-1.776z" transform="translate(13.32)"/>
        </g>
        <g fill="#000" transform="translate(122.896 31.257)">
            <path d="M1.86 58.688c-.491 0-.889-.397-.889-.888V9.057c0-.49.398-.888.888-.888s.888.398.888.888V57.8c0 .49-.397.888-.888.888z"/>
            <circle cx="1.742" cy="1.751" r="1.648"/>
        </g>
        <g fill="#000" transform="translate(50.26 11.366)">
            <path d="M58.074 81.776H4.44c-2.452 0-4.44-1.988-4.44-4.44V4.522C0 2.07 1.988.082 4.44.082h53.634c2.452 0 4.44 1.988 4.44 4.44v72.814c0 2.452-1.988 4.44-4.44 4.44zM4.44 1.858c-1.471 0-2.664 1.192-2.664 2.664v72.814C1.776 78.807 2.969 80 4.44 80h53.634c1.471 0 2.664-1.193 2.664-2.664V4.522c0-1.472-1.193-2.664-2.664-2.664H4.44z"/>
            <path d="M.888 17.664H61.626V19.44H.888zM.888 36.844H61.626V38.620000000000005H.888zM.888 56.024H61.626V57.800000000000004H.888z"/>
            <circle cx="16.859" cy="10.631" r="1.648"/>
            <circle cx="9.421" cy="10.631" r="1.648"/>
            <circle cx="24.297" cy="10.631" r="1.648"/>
            <circle cx="46.162" cy="28.213" r="1.648"/>
            <circle cx="38.725" cy="28.213" r="1.648"/>
            <circle cx="53.6" cy="28.213" r="1.648"/>
            <circle cx="15.794" cy="47.393" r="1.648"/>
            <circle cx="8.356" cy="47.393" r="1.648"/>
        </g>
        <g>
            <path fill="#FFF" d="M76.773 20.395c7.622-.425 14.855 3.4 18.794 9.94 3.939 6.538 3.939 14.72 0 21.26-3.94 6.539-11.172 10.363-18.794 9.938h-59.81C8.149 61.441 1.05 54.268 1.05 45.451c0-8.816 7.098-15.99 15.914-16.082h1.15c-1.633-13.55 7.892-25.911 21.411-27.784C53.045-.29 65.572 9.017 67.683 22.5c2.828-1.392 5.938-2.113 9.09-2.106z" transform="translate(42.268 54.7)"/>
            <path fill="#000" d="M77.964 62.457c-.404 0-.811-.01-1.214-.034H16.964C7.659 62.328.167 54.758.167 45.453s7.492-16.875 16.797-16.97h.146C15.75 14.67 25.516 2.24 39.258.29c13.741-1.95 26.579 7.273 29.116 20.918 2.644-1.119 5.485-1.697 8.356-1.7h.016c11.85-.68 22.008 8.375 22.688 20.225.68 11.85-8.376 22.009-20.226 22.688-.418.023-.833.036-1.244.036zm-61-32.2c-8.328.09-15.03 6.866-15.03 15.194 0 8.328 6.702 15.104 15.03 15.194h59.859c.757.044 1.517.044 2.275 0 7.032-.406 13.313-4.533 16.477-10.826 3.164-6.293 2.73-13.796-1.138-19.683-3.868-5.887-10.582-9.263-17.614-8.856h-.093c-3 .003-5.96.693-8.654 2.015l-1.103.544-.178-1.219C65.674 14.024 60.03 6.69 52.006 3.405 43.984.121 34.816 1.391 27.988 6.733c-6.827 5.342-10.266 13.934-9.008 22.512l.14 1.01-2.156.002z" transform="translate(42.268 54.7)"/>
        </g>
    </g>
</svg>
